<?xml version="1.0" standalone="no"?>
<!DOCTYPE svg PUBLIC "-//W3C//DTD SVG 20010904//EN"
 "http://www.w3.org/TR/2001/REC-SVG-20010904/DTD/svg10.dtd">
<svg version="1.0" xmlns="http://www.w3.org/2000/svg"
 width="300.000000pt" height="350.000000pt" viewBox="0 0 300.000000 350.000000"
 preserveAspectRatio="xMidYMid meet">
<metadata>
Created by potrace 1.10, written by Peter Selinger 2001-2011
</metadata>
<g transform="translate(0.000000,350.000000) scale(0.050000,-0.050000)"
fill="#42619e" stroke="none">
<path d="M2475 6960 c-28 -22 -60 -40 -70 -40 -10 0 -39 -23 -65 -50 -26 -28
-61 -48 -79 -45 -19 3 -33 -12 -37 -40 -4 -27 -47 -73 -110 -117 -92 -64 -133
-113 -254 -301 -16 -26 -41 -47 -55 -47 -14 0 -25 -17 -25 -39 0 -21 -13 -51
-29 -67 -16 -16 -25 -33 -20 -39 5 -5 -27 -23 -71 -40 -44 -18 -85 -24 -90
-14 -6 9 -47 4 -91 -11 -57 -20 -95 -23 -131 -9 -64 24 -94 24 -79 0 7 -11
-13 -11 -52 0 -50 14 -72 11 -100 -14 -23 -21 -53 -27 -86 -19 -29 7 -51 4
-51 -7 0 -11 -14 -15 -30 -8 -17 6 -43 1 -57 -11 -35 -29 -192 -35 -210 -8 -7
11 -60 31 -118 45 -58 14 -105 32 -105 40 0 14 -201 -13 -217 -30 -4 -4 38 -6
94 -5 55 2 114 -9 131 -22 17 -14 39 -20 50 -13 10 6 33 -8 51 -33 17 -25 31
-37 31 -27 0 9 18 1 40 -19 97 -87 51 -107 -86 -36 -145 75 -554 97 -554 30 0
-38 15 -42 175 -50 194 -9 322 -38 347 -77 22 -36 -54 -63 -137 -48 -185 32
-215 34 -185 11 24 -18 24 -25 4 -34 -14 -5 -43 -28 -63 -49 -20 -22 -49 -42
-64 -44 -68 -10 -77 -36 -77 -213 0 -97 8 -180 19 -183 11 -4 11 -41 -1 -98
-19 -90 -16 -4855 4 -4921 5 -18 25 -48 44 -67 19 -18 34 -46 34 -61 0 -105
101 -126 604 -125 l474 1 -89 68 c-49 37 -89 76 -89 87 0 10 -9 19 -20 19 -11
0 -20 -13 -20 -29 0 -41 -52 -63 -176 -77 -92 -11 -105 -8 -100 22 4 24 -10
36 -48 40 -43 5 -54 -3 -60 -41 -7 -56 -139 -42 -208 22 -22 20 -66 43 -98 51
-77 19 -96 52 -56 96 41 45 -112 1026 -167 1066 -50 36 -25 96 49 117 50 15
62 27 52 51 -71 162 -76 260 -77 1432 -1 638 -7 1170 -15 1182 -21 31 -24
1018 -4 1051 9 15 17 107 17 205 1 177 1 178 61 212 234 131 799 284 1370 371
105 16 215 34 245 41 54 12 55 11 55 -85 0 -53 9 -110 19 -126 20 -32 -11 -88
-40 -70 -9 5 -21 1 -28 -9 -6 -10 26 -21 70 -26 74 -7 80 -4 68 33 -76 235
-61 323 95 575 139 222 190 281 331 374 64 43 129 93 144 111 54 65 180 112
327 123 79 6 192 20 251 31 516 100 898 -205 935 -746 10 -150 19 -191 40
-183 61 23 1069 -176 1298 -257 138 -49 451 -183 460 -197 5 -8 11 -423 13
-922 3 -500 10 -1169 17 -1488 11 -547 9 -640 -16 -571 -5 15 -33 49 -61 75
-48 45 -50 56 -44 242 13 434 12 452 -53 567 -33 59 -97 134 -142 167 -92 67
-110 108 -99 222 l7 78 17 -89 c13 -69 38 -108 106 -169 48 -45 116 -124 150
-176 71 -110 83 -119 53 -41 -24 62 -101 169 -181 250 -101 102 -106 147 -106
929 l-1 724 -220 70 c-283 91 -503 142 -790 182 -477 66 -461 57 -451 255 l5
105 -28 -69 c-26 -61 -25 -80 12 -190 44 -131 82 -332 96 -517 11 -129 -8
-109 314 -344 98 -71 188 -130 201 -130 13 0 54 -22 91 -50 37 -27 82 -50 99
-50 137 0 520 -314 590 -485 36 -86 7 -102 -37 -20 -83 157 -382 399 -547 444
-47 12 -118 45 -158 72 -40 27 -84 49 -97 49 -14 0 -57 39 -96 86 -51 63 -119
110 -245 171 l-173 84 13 88 c10 67 4 107 -26 165 -26 52 -38 117 -38 206 0
92 -13 158 -45 228 l-44 98 46 136 c45 131 45 140 14 232 -18 53 -32 124 -31
159 9 328 -471 666 -805 566 -39 -11 -148 -29 -244 -40 -162 -17 -316 -67
-316 -102 0 -8 -61 -55 -136 -103 -144 -93 -202 -158 -348 -385 -149 -234
-170 -372 -82 -543 71 -137 30 -526 -55 -526 -31 0 -22 113 11 140 65 54 39
179 -35 169 -36 -5 -177 -22 -315 -39 -263 -33 -454 -69 -695 -132 -163 -43
-181 -45 -154 -20 53 48 625 168 999 209 204 22 220 27 226 68 8 51 47 53
-506 -17 -457 -58 -605 -91 -880 -196 l-100 -38 -14 -587 c-7 -323 -24 -663
-37 -757 -28 -203 -30 -275 -9 -335 11 -34 7 -45 -16 -45 -22 0 -31 -19 -29
-65 1 -36 5 -54 10 -40 15 44 38 27 74 -53 29 -64 31 -85 10 -123 -53 -100
-117 -328 -95 -342 36 -22 56 -224 65 -669 12 -593 88 -903 223 -907 24 -1 67
-20 97 -44 l54 -42 60 73 c109 131 514 205 586 107 31 -43 59 -17 80 75 8 37
38 76 77 100 62 39 64 46 70 197 5 132 11 155 39 149 27 -5 32 -26 28 -109 -4
-64 6 -126 25 -163 36 -70 27 -84 -61 -84 -60 0 -72 -10 -118 -102 l-52 -102
42 -39 c55 -52 52 -70 -19 -107 -42 -22 -60 -46 -60 -80 0 -53 -107 -189 -131
-166 -8 8 10 43 39 78 30 35 48 69 41 76 -8 6 -28 -10 -46 -38 -18 -27 -58
-77 -88 -112 -69 -79 -69 -90 3 -143 32 -24 123 -140 203 -259 187 -279 206
-305 224 -305 31 -2 13 42 -37 95 -196 203 -234 612 -78 847 139 211 487 322
800 256 137 -28 167 -30 360 -18 133 9 140 7 146 -36 7 -46 -23 -62 -46 -25
-7 11 -62 20 -124 20 -95 0 -107 -4 -87 -29 15 -18 44 -25 78 -19 74 15 209
-86 290 -217 l63 -102 6 138 c4 81 -4 156 -18 183 -45 84 2 106 226 106 227 0
239 -4 418 -163 72 -64 137 -117 145 -117 26 0 12 123 -17 153 -88 88 21 136
271 119 163 -11 199 -9 199 14 0 48 -73 98 -133 91 -48 -6 -56 -1 -49 33 14
69 10 238 -7 285 -13 37 -8 45 24 45 47 0 64 -49 65 -185 0 -83 7 -99 51 -119
32 -14 71 -65 102 -131 35 -73 75 -122 129 -156 82 -52 99 -95 47 -125 -38
-21 -66 -184 -32 -184 13 0 23 9 23 20 0 128 419 360 652 360 73 0 92 8 108
45 43 101 83 338 93 545 12 286 14 294 88 337 74 44 176 32 229 -27 20 -22 47
-40 61 -40 71 0 15 -801 -61 -877 -15 -14 92 -123 121 -123 12 0 38 -16 56
-37 114 -126 -156 -378 -344 -321 -30 9 -79 -53 -58 -73 7 -7 72 -18 146 -24
99 -8 138 -20 155 -48 13 -20 37 -37 54 -37 89 0 151 -102 90 -148 -43 -33
-98 -340 -69 -393 48 -90 -37 -146 -287 -190 -254 -45 -690 -25 -711 32 -19
54 -103 18 -103 -43 0 -58 4 -62 60 -54 33 5 60 2 60 -7 0 -38 1057 -20 1067
18 5 19 20 77 33 128 17 65 21 202 13 450 -6 196 -10 384 -8 417 15 246 -7
1377 -28 1415 -13 26 -13 46 2 63 11 15 21 48 22 74 0 26 3 86 6 133 6 77 2
85 -40 85 -32 0 -42 9 -34 30 6 17 23 30 38 30 40 0 55 38 28 71 -19 23 -19
29 1 29 17 0 21 19 12 64 -13 65 -47 102 -76 84 -32 -20 -59 14 -35 44 13 15
31 23 41 17 10 -6 12 3 5 21 -8 22 1 36 30 44 63 16 63 176 1 192 -45 12 -35
54 13 54 76 0 1 118 -76 119 -82 2 -17 61 67 61 36 0 38 18 38 319 0 281 -4
318 -31 308 -17 -7 -36 -38 -42 -69 -7 -32 -20 -52 -29 -46 -32 19 -19 87 22
113 22 13 40 40 40 60 0 19 7 35 15 35 25 0 29 182 4 211 -12 15 -16 46 -9 68
9 28 3 45 -19 53 -28 11 -27 17 9 48 49 42 50 56 7 103 -31 35 -31 37 1 37 21
0 29 9 20 23 -8 13 -16 44 -19 69 -3 25 -34 87 -69 138 -82 119 -55 168 39 74
l61 -61 0 66 c0 46 -14 76 -50 103 -59 44 -70 114 -15 94 19 -7 42 -23 50 -35
8 -11 15 25 15 82 0 95 -4 104 -61 128 -45 18 -54 30 -35 42 25 16 22 19 -23
25 -11 1 -49 30 -85 64 -43 40 -82 60 -110 55 -43 -6 -99 54 -73 79 6 6 -7 7
-28 1 -22 -6 -54 5 -72 23 -18 18 -67 34 -108 37 -41 2 -84 9 -95 16 -11 6
-45 17 -75 25 -30 7 -55 22 -55 32 0 11 -10 20 -21 20 -12 0 -16 -9 -9 -20 8
-13 -4 -14 -36 -2 -26 10 -58 12 -72 4 -26 -17 -162 19 -162 43 0 8 -18 15
-40 15 -22 0 -40 8 -40 17 0 9 -29 17 -65 17 -36 0 -105 7 -155 15 -49 8 -151
19 -227 25 -101 8 -139 19 -148 43 -17 44 -57 84 -71 70 -6 -6 -16 33 -23 86
-6 53 -26 138 -44 187 -17 50 -32 101 -33 114 0 13 -7 20 -15 15 -8 -5 -25 4
-38 19 -17 22 -17 31 3 38 14 6 6 12 -19 12 -29 1 -45 14 -45 38 0 19 -40 78
-89 130 -50 52 -88 101 -85 109 12 41 -1219 26 -1271 -15z m985 -162 c142 -80
297 -258 340 -389 32 -96 21 -100 -97 -40 -176 89 -187 66 -42 -86 271 -285
179 -389 -387 -440 -327 -29 -389 11 -139 89 61 20 101 39 88 44 -66 22 -8 51
151 75 124 19 136 24 142 63 4 30 -8 45 -45 54 -60 15 -69 52 -13 52 76 0 102
-22 89 -73 -8 -33 -4 -47 13 -43 14 3 29 -5 34 -19 5 -14 -4 -25 -21 -25 -17
0 -36 -8 -42 -18 -6 -10 5 -15 24 -12 19 4 41 8 48 8 23 3 56 119 35 126 -10
3 -22 27 -27 53 -28 145 -152 141 -414 -12 -52 -30 -164 -96 -250 -147 -395
-233 -671 -329 -732 -256 -98 118 -46 225 181 378 89 60 120 92 105 107 -14
14 -37 9 -76 -20 -30 -22 -100 -63 -155 -90 -55 -28 -120 -63 -144 -78 -24
-15 -50 -22 -57 -14 -22 21 74 125 171 186 50 31 207 144 350 250 423 314 667
392 870 277z m-1341 -909 c8 5 11 -11 6 -37 -7 -37 5 -52 61 -79 115 -54 134
-93 45 -93 -161 0 -236 101 -167 226 21 39 25 40 32 9 4 -20 14 -31 23 -26z
m1637 -56 c-45 -45 -117 -77 -148 -65 -51 20 -29 46 57 67 119 28 121 28 91
-2z m-1058 -195 c44 -27 72 -34 81 -20 9 15 32 14 77 -3 52 -19 89 -18 199 9
74 18 218 39 320 46 l185 13 0 -47 c0 -27 8 -57 18 -67 24 -26 3 -151 -25
-145 -22 5 -133 -87 -133 -109 0 -23 103 13 126 45 72 103 174 60 174 -74 0
-129 -46 -205 -125 -206 -52 0 -42 29 20 62 92 47 115 132 55 209 -27 37 -29
35 -18 -24 15 -75 -42 -123 -175 -148 -131 -23 -267 76 -153 112 41 13 41 15
-15 40 l-59 26 52 1 c29 1 75 20 103 42 28 22 60 40 71 40 35 0 69 125 39 144
-41 27 -181 -6 -242 -57 -65 -54 -126 -60 -188 -17 -40 28 -45 28 -65 -10 -26
-48 -55 -51 -102 -8 -27 24 -44 26 -75 10 -70 -38 -126 -24 -194 48 -43 45
-77 66 -98 58 -48 -19 -37 20 14 45 63 31 58 31 133 -15z m-298 -99 c0 -22 9
-39 20 -39 11 0 20 -13 20 -28 0 -34 119 -112 172 -113 37 0 37 -1 2 -28 -35
-26 -35 -28 5 -41 50 -16 54 -61 6 -77 -19 -7 -49 -22 -65 -34 -80 -59 -308
66 -289 157 11 53 11 53 -21 14 -32 -38 -33 -38 -27 -2 12 68 69 86 121 38 25
-24 73 -49 106 -57 l60 -15 -48 52 c-26 29 -56 50 -66 48 -29 -6 -74 140 -50
164 28 28 54 8 54 -39z m2120 -82 c116 -20 228 -41 250 -45 161 -29 490 -132
490 -152 0 -10 -61 -1 -135 19 -74 21 -234 56 -355 79 -121 23 -260 50 -310
61 -49 10 -135 24 -190 30 -158 19 -211 33 -200 51 13 21 178 6 450 -43z
m-1879 22 c22 -11 39 -29 39 -40 0 -27 -67 -24 -96 5 -52 52 -15 74 57 35z
m739 5 c0 -28 -47 -64 -84 -64 -46 0 -46 32 -1 58 42 25 85 28 85 6z m-1460
-64 c0 -29 -79 -103 -98 -91 -9 5 -17 -17 -18 -50 -1 -32 7 -59 17 -59 11 0
19 -17 19 -38 0 -40 -119 -142 -166 -142 -16 0 -45 -22 -66 -50 -21 -27 -49
-50 -63 -50 -14 0 -25 -19 -25 -41 0 -23 -9 -36 -20 -29 -11 7 -20 2 -20 -10
0 -12 -8 -17 -18 -11 -9 6 -22 -9 -29 -32 -8 -31 -22 -39 -52 -32 -23 6 -36 3
-30 -7 11 -17 2 -21 -56 -26 -14 -1 -43 -18 -64 -37 -22 -20 -52 -31 -66 -26
-15 6 -22 3 -16 -7 13 -22 -35 -42 -99 -42 -26 0 -53 -8 -59 -19 -7 -10 -62
-47 -123 -82 -82 -47 -124 -88 -164 -161 -79 -142 -84 -129 -85 217 -1 173 -6
375 -11 447 l-10 133 96 31 c276 91 737 182 1106 220 39 4 81 9 95 11 14 2 25
-6 25 -17z m1120 -1 c0 -25 -61 -40 -112 -27 -58 15 -63 -3 -8 -32 30 -16 54
-14 99 9 170 88 316 -78 187 -213 -29 -31 -74 -56 -99 -56 -25 0 -55 -17 -66
-39 -26 -47 -96 -47 -151 1 -22 19 -62 38 -88 41 -153 22 -160 251 -9 287 46
11 88 25 94 30 16 16 153 15 153 -1z m1310 -48 c66 -4 125 -10 130 -12 6 -2
17 -3 25 -1 19 3 276 -77 319 -99 22 -12 37 -9 43 7 7 16 21 12 42 -16 25 -30
40 -34 66 -18 41 25 91 14 72 -16 -8 -14 10 -18 53 -12 51 8 67 2 75 -25 5
-20 26 -40 47 -45 21 -6 38 -21 38 -33 0 -13 -8 -18 -18 -12 -10 6 -11 -20 -1
-62 19 -86 8 -121 -43 -138 -23 -7 -38 -30 -38 -60 0 -32 9 -44 28 -37 35 13
54 -62 36 -142 -8 -33 -26 -62 -40 -65 -15 -4 -23 1 -18 10 6 8 -4 28 -22 44
-28 26 -30 26 -18 -5 7 -19 4 -34 -7 -34 -10 0 -19 12 -19 26 0 15 -14 44 -30
65 -20 26 -27 29 -19 7 6 -17 -3 -43 -20 -57 -30 -25 -41 -11 -34 42 1 7 -20
11 -47 8 -28 -3 -53 7 -59 24 -8 19 -27 25 -58 17 -33 -8 -59 1 -83 28 -20 22
-52 40 -72 40 -20 0 -48 25 -63 55 -15 30 -42 54 -60 52 -33 -2 -62 51 -64
118 -1 19 -10 33 -21 30 -11 -3 -18 -12 -15 -20 3 -8 -5 -15 -16 -15 -12 0
-16 -8 -10 -18 6 -9 -3 -29 -20 -43 -29 -24 -93 16 -105 66 -21 92 -33 119
-61 136 -24 16 -26 24 -8 32 35 15 31 47 -6 47 -42 0 -84 44 -89 92 -7 63 -2
69 45 58 25 -6 99 -15 165 -19z m-2177 -181 c-37 -164 -38 -176 -19 -163 25
15 50 -92 33 -137 -6 -16 -1 -30 11 -30 12 0 22 -29 22 -64 0 -50 5 -59 24
-40 43 43 61 25 47 -46 -14 -79 4 -131 30 -88 21 34 30 23 46 -57 23 -121
-108 -38 -140 88 -6 26 -24 47 -39 47 -15 0 -33 25 -41 55 -7 30 -27 65 -43
77 -38 28 -40 244 -3 374 29 100 95 85 72 -16z m1665 15 c24 -88 30 -164 24
-312 -1 -39 -15 -60 -42 -67 -28 -8 -40 -27 -40 -68 0 -34 -11 -58 -26 -58
-14 0 -37 -32 -51 -71 -24 -65 -112 -147 -134 -125 -25 26 17 136 44 114 22
-19 27 -7 27 70 0 50 9 92 20 92 11 0 20 -9 20 -20 0 -11 9 -20 20 -20 11 0
20 27 20 60 0 33 7 60 17 60 9 0 16 38 15 85 -1 57 7 83 23 80 30 -6 31 4 3
102 -21 77 -11 173 18 173 9 0 27 -43 42 -95z m-3218 38 c-38 -20 -74 -32 -80
-28 -18 15 67 65 109 64 31 -1 24 -9 -29 -36z m1679 -89 c62 -31 76 -74 24
-74 -48 0 -104 71 -102 129 2 37 3 38 16 5 8 -20 36 -47 62 -60z m-369 -55 c8
-34 11 -64 7 -67 -4 -3 -58 -34 -121 -70 -63 -35 -162 -116 -220 -179 -75 -81
-130 -122 -188 -139 -45 -13 -98 -42 -118 -64 -20 -22 -59 -40 -86 -40 -178 0
-404 -145 -484 -309 -23 -49 -76 -118 -116 -154 l-74 -65 -5 405 c-4 242 2
419 14 439 14 24 21 -50 25 -246 7 -450 8 -479 13 -500 6 -26 61 71 62 108 3
99 251 299 441 356 209 63 395 162 485 259 46 50 131 121 187 158 66 41 107
84 116 117 17 70 46 66 62 -9z m853 -39 c46 0 166 -97 168 -135 6 -91 10 -106
29 -95 11 7 20 36 20 65 0 54 69 145 111 145 13 0 49 20 79 44 l56 43 48 -58
c26 -33 69 -85 95 -116 74 -90 94 -253 23 -195 -66 55 -153 60 -358 22 -294
-55 -393 -91 -511 -183 -62 -48 -83 -32 -83 64 0 80 53 239 79 239 8 0 24 20
36 45 48 102 132 180 156 147 13 -18 36 -32 52 -32z m-855 -152 c7 -17 12 -58
12 -90 0 -37 10 -58 28 -58 16 0 41 -27 55 -60 15 -33 34 -60 42 -60 21 0 18
-84 -5 -120 -13 -20 -19 -22 -20 -5 0 14 -9 25 -20 25 -11 0 -20 -18 -20 -40
0 -22 13 -40 30 -40 17 0 30 -18 30 -40 0 -44 -51 -55 -67 -15 -6 15 -10 11
-11 -10 -3 -47 -12 -45 -114 24 -83 56 -118 59 -64 5 38 -38 -39 -30 -174 16
-64 22 -129 40 -145 40 -53 0 -14 -44 63 -71 102 -35 125 -59 93 -97 -22 -27
-12 -29 75 -19 168 20 393 -59 279 -99 -14 -4 -10 -6 8 -4 18 3 43 -16 55 -43
32 -71 27 -110 -13 -104 -19 3 -57 -7 -83 -21 -43 -24 -52 -23 -76 10 -17 24
-20 40 -7 44 32 11 25 64 -9 64 -16 0 -30 8 -30 18 0 32 -137 45 -187 18 -26
-14 -148 -131 -270 -259 -228 -238 -255 -288 -192 -351 41 -41 23 -57 -166
-146 -139 -65 -195 -70 -149 -14 13 14 27 93 32 175 6 82 25 184 42 227 41 96
-2 240 -81 276 -26 12 -41 32 -35 48 16 43 -13 33 -54 -17 -56 -69 -66 -30
-15 59 118 207 282 306 506 306 36 0 56 13 63 40 10 37 161 100 239 100 14 0
21 12 16 26 -15 39 92 170 192 234 103 67 130 72 147 28z m2257 -58 c271 -148
290 -231 62 -258 -137 -16 -131 -22 -93 95 36 108 23 135 -68 144 l-56 6 44
-36 c31 -25 37 -42 22 -57 -27 -27 -36 -206 -12 -237 13 -17 34 -15 81 8 47
24 65 26 71 8 5 -16 16 -18 31 -5 13 10 55 22 93 25 43 4 68 17 65 32 -8 41
97 30 108 -11 7 -26 45 -44 133 -62 223 -47 259 -66 416 -226 189 -191 223
-258 234 -471 5 -91 17 -171 26 -177 46 -28 -139 -268 -206 -268 -55 0 -43 54
24 103 89 66 106 141 69 307 -17 77 -37 181 -46 231 -17 98 -79 219 -112 219
-12 0 -46 31 -77 70 -82 103 -314 198 -314 129 0 -11 11 -19 25 -18 57 8 74
-3 73 -46 0 -25 2 -63 6 -85 4 -28 -5 -39 -28 -37 -19 1 -34 -3 -33 -10 6 -47
-9 -65 -48 -62 -71 6 -87 0 -56 -20 24 -15 24 -23 2 -49 -20 -25 -20 -39 -2
-60 12 -16 15 -33 6 -39 -26 -16 -4 -153 24 -153 13 0 50 -30 83 -67 45 -51
82 -71 152 -81 52 -8 97 -27 104 -43 16 -43 66 -35 78 13 14 54 54 30 54 -32
0 -53 -65 -100 -113 -82 -16 7 -24 3 -17 -8 7 -11 30 -20 51 -20 45 0 53 -56
10 -72 -29 -11 -260 63 -307 99 -43 32 5 57 114 59 65 1 102 10 102 26 0 31
-140 51 -324 47 -154 -4 -256 14 -256 43 0 10 -10 18 -22 18 -17 0 -16 -8 1
-28 52 -63 -19 -45 -118 29 -58 43 -116 79 -130 79 -14 0 -62 27 -107 60 -74
53 -106 61 -298 78 -587 51 -885 176 -383 160 407 -12 1033 192 1013 330 -8
53 -43 48 -56 -9 -10 -43 -48 -62 -280 -138 -117 -39 -157 -35 -119 11 30 36
3 35 -61 -2 -84 -48 -116 -36 -55 21 64 59 74 101 18 71 -20 -11 -48 -33 -61
-50 -24 -28 -188 -132 -209 -132 -5 0 -5 18 1 40 6 22 18 40 28 40 30 0 158
135 158 166 0 16 18 51 39 77 l40 47 0 -44 c1 -73 36 -70 50 4 7 39 24 70 39
70 14 0 37 36 52 80 15 44 38 80 53 80 16 0 27 23 27 57 0 104 19 105 185 13z
m-797 -121 c79 -33 110 -79 76 -113 -15 -15 -37 -9 -75 21 -58 46 -289 64
-289 23 0 -11 11 -20 23 -20 63 0 -16 -23 -220 -63 -209 -41 -227 -42 -257
-11 -43 42 48 84 274 127 82 16 177 36 210 46 94 27 179 24 258 -10z m-1132
-337 c-5 -24 2 -54 15 -66 14 -13 29 -123 38 -271 7 -136 21 -280 30 -320 21
-96 6 -113 -89 -98 -77 13 -80 17 -85 93 -3 44 -16 170 -29 280 -27 229 -23
528 9 566 29 34 123 -121 111 -184z m1374 15 c-20 -14 -60 -47 -89 -73 -28
-25 -67 -52 -86 -59 -19 -8 -35 -23 -35 -34 0 -12 -20 -21 -45 -21 -38 0 -29
15 63 100 60 55 120 100 133 100 13 0 36 14 51 32 20 24 29 26 35 7 5 -14 -8
-37 -27 -52z m-270 32 c0 -38 -85 -136 -110 -126 -13 5 -39 -14 -57 -41 -33
-50 -109 -103 -125 -87 -5 5 23 48 62 97 38 48 70 99 70 112 0 37 39 52 69 27
20 -17 29 -15 38 8 13 35 53 42 53 10z m-356 -109 c-5 -38 -16 -70 -26 -70
-10 0 -18 -10 -18 -22 0 -12 14 -17 30 -11 36 14 39 -10 6 -43 -51 -51 -123
10 -77 65 16 19 -13 24 -119 24 -77 0 -141 -7 -142 -16 -2 -9 -4 -25 -5 -35
-6 -42 -32 -40 -139 9 -66 30 -117 68 -125 92 -15 48 6 77 30 39 9 -15 63 -43
120 -63 l103 -37 20 45 c16 35 39 45 114 49 135 7 204 17 218 31 19 19 19 19
10 -57z m2037 -161 c59 -30 81 -88 34 -90 -14 -1 -5 -10 20 -20 44 -17 71
-179 29 -179 -8 0 -25 -27 -38 -60 -39 -103 -179 -132 -252 -52 -121 132 -133
180 -76 299 62 128 163 164 283 102z m-3241 -74 c26 -47 100 -161 164 -254 85
-122 111 -174 94 -190 -16 -15 -31 -7 -55 29 -18 27 -46 63 -63 80 -64 66
-220 350 -220 402 0 42 36 12 80 -67z m736 33 c52 -22 107 -28 184 -20 119 13
142 5 177 -62 51 -97 -6 -114 -151 -44 -117 57 -149 39 -48 -28 45 -30 82 -67
82 -82 0 -49 86 -56 125 -10 19 23 36 39 36 35 17 -94 11 -138 -16 -128 -16 6
-40 3 -53 -7 -23 -20 -346 -102 -399 -102 -42 0 -58 70 -61 258 -3 226 6 240
124 190z m3423 -63 c-1 -39 -57 -85 -87 -73 -31 12 -31 16 0 50 34 38 89 52
87 23z m-5106 -35 c18 -48 -12 -144 -34 -109 -14 22 -18 16 -19 -23 0 -85 -72
-131 -225 -145 -75 -6 -135 -4 -135 6 0 35 41 124 70 153 16 17 37 44 47 61 9
17 66 43 125 57 144 35 157 35 171 0z m2202 -62 c5 -69 3 -74 -22 -43 -15 19
-38 35 -50 35 -29 0 -29 12 -2 63 33 60 68 34 74 -55z m-1393 -137 c10 -10 18
-34 18 -53 0 -18 13 -44 29 -57 23 -19 24 -32 6 -62 -14 -21 -29 -29 -36 -17
-8 13 -32 12 -70 -2 -73 -28 -157 -9 -141 31 16 42 -13 36 -55 -12 -41 -49
-81 -42 -89 13 -4 29 13 46 65 65 39 14 80 42 90 62 11 20 38 41 60 47 34 8
37 4 20 -28 -16 -30 -14 -35 11 -25 16 6 30 31 30 56 0 57 28 86 37 38 4 -20
15 -46 25 -56z m4278 -45 c0 -41 -58 -70 -62 -31 0 8 -5 33 -9 55 -5 22 -3 54
3 70 15 42 68 -31 68 -94z m-5106 -6 c-6 -22 -2 -40 8 -40 10 0 18 -18 18 -40
0 -55 -57 -51 -78 5 -19 49 5 115 41 115 12 0 17 -18 11 -40z m3074 -42 c191
-92 185 -81 137 -250 -26 -92 -52 -137 -105 -180 -85 -69 -155 -143 -364 -378
-242 -273 -392 -405 -536 -474 -71 -34 -229 -110 -350 -169 -240 -117 -310
-132 -730 -158 -129 -7 -223 -6 -214 4 9 9 90 67 179 127 146 99 208 160 162
160 -9 0 -134 -77 -277 -172 -143 -94 -314 -192 -380 -218 -66 -25 -175 -69
-242 -97 -198 -84 -295 -62 -448 100 -159 170 -169 229 -16 98 145 -124 194
-118 576 64 182 86 400 188 485 225 85 37 155 76 155 86 0 23 3 24 -490 -107
-548 -144 -485 -148 -585 34 -233 424 -21 853 470 950 526 104 1005 113 1005
21 0 -10 -135 -102 -300 -204 -273 -169 -337 -220 -280 -220 45 0 406 194 678
365 433 271 684 377 1048 444 219 39 237 37 422 -51z m-3172 -140 c7 -128 -7
-147 -132 -175 -173 -39 -206 239 -34 283 127 32 160 11 166 -108z m4767 -91
c59 -68 87 -135 50 -121 -36 14 -64 -17 -33 -36 26 -16 26 -110 0 -110 -11 0
-20 -37 -20 -81 0 -45 8 -76 18 -70 26 16 41 -57 52 -259 12 -193 16 -193 -76
7 -57 126 -230 302 -414 423 -88 58 -160 110 -160 115 0 19 129 -16 218 -59
65 -31 92 -36 98 -19 6 19 15 19 36 1 20 -16 28 -17 28 0 0 12 15 22 34 22 26
0 29 5 10 24 -32 32 -31 86 3 113 20 17 33 7 59 -47 18 -39 42 -70 54 -70 33
0 22 86 -20 155 -59 98 -19 105 63 12z m-934 -157 c404 -117 731 -352 731
-525 0 -130 -212 -408 -369 -484 l-83 -41 -179 51 c-238 68 -626 200 -796 272
-179 75 -286 68 -138 -9 228 -118 273 -145 483 -283 198 -130 634 -351 693
-351 87 0 154 41 302 184 81 78 147 133 147 121 0 -47 -291 -392 -347 -411
-102 -34 -416 74 -783 270 -206 111 -320 161 -483 215 -276 91 -267 51 28
-123 80 -47 145 -93 145 -101 0 -49 -514 52 -661 129 -105 55 -149 96 -104 96
25 0 207 180 356 350 76 88 173 197 215 242 42 46 87 97 100 112 76 93 470
336 543 336 15 0 104 -23 200 -50z m-3702 -27 c32 -13 19 -32 -91 -134 -108
-99 -134 -136 -154 -218 -21 -84 -110 -209 -133 -186 -18 17 -11 311 8 360 24
59 63 75 63 25 0 -51 30 -33 81 47 67 107 139 140 226 106z m4752 -133 c0 -72
-5 -92 -19 -70 -11 17 -19 75 -19 130 0 72 5 92 19 70 11 -16 19 -75 19 -130z
m35 -595 c34 11 127 -85 124 -129 -3 -34 -3 -34 -12 -1 -5 20 -36 50 -69 67
-60 30 -60 30 -47 -16 13 -41 11 -43 -17 -16 -16 17 -36 57 -43 90 -11 52 -9
56 14 28 14 -17 37 -28 50 -23z m268 -124 c27 -28 22 -92 -7 -86 -43 9 -88 61
-60 70 14 5 26 32 27 62 2 41 5 44 12 13 6 -22 18 -49 28 -59z m-5200 -116
c16 -59 -11 -80 -67 -52 -41 22 -44 48 -10 87 34 39 60 27 77 -35z m2297 -189
c0 8 20 -2 44 -25 36 -33 39 -45 17 -71 -38 -46 -100 16 -99 98 2 53 4 56 19
22 9 -22 18 -33 19 -24z m-138 -11 c23 -25 47 -69 52 -97 7 -33 23 -52 44 -50
18 1 33 -11 33 -28 0 -33 73 -100 109 -100 13 0 17 -19 10 -49 -11 -41 -7 -47
28 -38 35 9 40 3 35 -45 -11 -97 -112 -69 -112 31 0 28 -13 41 -42 41 -32 0
-40 9 -33 39 7 23 -1 43 -21 50 -29 12 -63 -18 -64 -55 -1 -69 -40 29 -40 102
0 60 -15 116 -40 154 -65 98 -38 128 41 45z m-2313 -7 c7 -17 12 -78 12 -135
0 -56 19 -188 42 -293 66 -296 66 -301 21 -220 -73 133 -160 680 -108 680 11
0 26 -14 33 -32z m2652 -17 c0 -14 13 -37 30 -51 21 -17 24 -34 10 -61 -15
-26 -12 -45 10 -66 36 -37 39 -60 5 -43 -14 7 -9 0 10 -16 43 -35 45 -86 5
-101 -16 -7 -30 -2 -30 9 0 11 -8 15 -18 9 -26 -16 -65 39 -51 73 32 84 22
213 -18 224 -33 8 -35 15 -14 41 28 33 61 24 61 -18z m-529 -12 c7 -12 25 -17
39 -12 36 14 138 -98 123 -136 -15 -40 -91 -40 -106 -1 -6 17 -22 30 -36 30
-23 0 -71 81 -71 121 0 26 34 24 51 -2z m476 -82 c14 -57 -4 -85 -37 -57 -26
22 -18 100 10 100 8 0 20 -20 27 -43z m-696 -71 c-7 -19 9 -48 42 -77 54 -46
55 -118 0 -98 -15 6 -33 -3 -40 -21 -7 -18 -22 -27 -34 -19 -12 7 -17 26 -11
41 13 33 -137 188 -180 188 -16 0 -28 13 -28 28 0 31 125 8 173 -31 15 -12 27
-1 36 37 13 49 16 52 34 20 11 -20 15 -50 8 -68z m1105 47 c4 -18 19 -33 34
-33 15 0 31 -11 37 -25 6 -16 10 -13 11 8 2 38 75 63 91 30 8 -17 14 -16 23 2
12 26 109 36 107 10 -3 -33 -126 -114 -135 -88 -5 16 -28 3 -65 -38 -31 -35
-64 -58 -75 -52 -10 7 -37 -11 -61 -38 -80 -92 -202 39 -131 140 16 22 28 60
28 85 0 57 125 55 136 -1z m-1407 -93 c12 -50 33 -88 46 -85 13 2 47 -19 75
-47 40 -40 58 -46 79 -29 18 15 32 16 40 3 16 -26 -52 -62 -119 -62 -73 0
-170 54 -171 96 0 18 -18 70 -39 114 -51 105 -50 114 13 106 45 -5 57 -20 76
-96z m1858 -2 c-2 -104 -22 -178 -48 -178 -11 0 -19 9 -19 21 0 11 -20 2 -44
-20 -24 -23 -59 -41 -79 -41 -19 0 -40 -9 -47 -20 -33 -54 -141 -5 -121 56 22
69 120 123 103 56 -7 -28 -5 -52 4 -52 31 0 64 48 64 94 0 25 8 46 18 46 9 0
22 26 29 59 8 40 26 61 57 67 76 14 85 5 83 -88z m-1290 -87 c81 33 103 33
103 0 0 -19 15 -49 33 -67 21 -21 25 -35 10 -40 -39 -13 -25 -44 19 -44 25 0
46 16 52 40 14 54 66 51 66 -3 0 -24 -6 -38 -13 -31 -6 7 -39 -2 -72 -19 -36
-18 -65 -23 -73 -12 -6 10 -50 25 -96 32 -156 24 -186 44 -186 123 0 79 30 93
52 25 14 -43 15 -43 36 15 20 56 21 57 28 13 5 -34 16 -43 41 -32z m-1257 31
c0 -10 -11 -23 -25 -28 -20 -7 -20 -17 0 -51 34 -58 32 -68 -14 -53 -26 8 -45
0 -59 -26 -18 -33 -33 -37 -106 -23 -47 8 -101 7 -120 -3 -21 -11 -38 -11 -46
2 -8 13 -25 13 -51 0 -29 -16 -36 -15 -28 5 15 38 108 75 191 75 40 0 84 13
96 28 13 15 46 34 73 40 27 7 49 22 49 32 0 11 9 20 20 20 11 0 20 -8 20 -18z
m3006 -28 c23 -9 31 -6 23 8 -16 25 148 -55 194 -95 18 -16 58 -32 90 -35 35
-3 64 -22 77 -49 11 -24 33 -43 50 -44 23 0 21 -5 -7 -22 -20 -11 -52 -17 -72
-11 -21 5 -47 -7 -63 -29 -53 -73 -258 18 -258 114 0 27 -8 47 -18 44 -22 -6
-102 83 -102 115 0 32 25 54 39 34 6 -9 27 -23 47 -30z m-2526 -24 c14 -16 37
-30 52 -30 43 0 35 -95 -10 -109 -52 -17 -142 28 -142 71 0 92 51 127 100 68z
m-1007 -77 c26 4 42 -4 40 -18 -7 -46 -36 -77 -70 -74 -48 5 -123 -23 -123
-45 0 -10 -9 -13 -20 -6 -12 7 -16 21 -9 31 6 10 -3 13 -20 7 -17 -7 -31 -3
-31 8 0 12 -5 35 -12 52 -8 21 -1 32 20 32 19 0 38 13 45 29 9 26 20 26 74 3
35 -14 83 -23 106 -19z m2857 -202 c-71 -59 -78 -60 -109 -22 -38 45 -7 71 85
71 l84 0 -60 -49z m-777 -16 c-7 -25 -13 -52 -13 -60 -1 -48 -40 -4 -40 45 0
42 10 60 32 60 24 0 29 -12 21 -45z"/>
<path d="M3120 6762 c-16 -11 -82 -39 -145 -63 -63 -24 -110 -50 -105 -59 5
-8 -8 -20 -30 -26 -27 -7 -36 -21 -28 -43 12 -29 15 -29 39 3 22 31 33 32 68
11 34 -21 55 -20 116 6 52 22 104 27 170 18 87 -12 95 -9 95 29 0 37 -11 41
-101 39 -130 -3 -139 9 -26 35 67 16 97 15 114 -2 48 -47 102 -67 136 -48 39
21 177 -98 177 -153 0 -17 8 -26 18 -20 11 6 22 -1 25 -16 5 -17 20 -23 44
-14 49 17 -57 161 -183 250 -91 63 -316 94 -384 53z"/>
<path d="M2720 6502 c0 -10 -22 -23 -48 -30 -57 -14 -82 -64 -40 -80 16 -6 35
2 41 18 6 17 24 30 39 30 15 0 28 18 28 40 0 22 -4 40 -10 40 -5 0 -10 -8 -10
-18z"/>
<path d="M2739 5298 c-24 -45 -11 -108 19 -89 11 6 25 -7 32 -29 9 -27 30 -40
67 -40 33 0 64 -16 81 -43 l27 -44 32 42 c18 23 55 45 82 48 29 4 61 28 75 57
14 28 26 37 26 20 1 -25 4 -25 18 -3 22 36 4 103 -32 117 -51 20 -161 -56
-174 -119 -12 -62 -52 -58 -52 5 0 87 -162 150 -201 78z"/>
<path d="M4565 5216 c-87 -42 -15 -94 80 -58 28 11 72 15 98 10 26 -4 34 -3
17 5 -16 7 -37 25 -46 40 -19 32 -86 33 -149 3z"/>
<path d="M1691 4761 c-90 -92 -69 -117 58 -73 95 33 124 80 38 61 l-57 -12 45
40 c51 45 57 63 19 63 -14 0 -61 -36 -103 -79z"/>
<path d="M1295 4426 c-40 -10 -46 -37 -13 -57 12 -8 41 5 64 29 44 43 31 50
-51 28z"/>
<path d="M953 4363 c-69 -76 -31 -84 57 -12 54 44 56 49 18 49 -23 0 -57 -16
-75 -37z"/>
<path d="M1449 4379 c-17 -28 -12 -31 69 -46 l68 -13 -51 40 c-59 46 -68 48
-86 19z"/>
<path d="M1090 4159 c-79 -29 28 -41 206 -22 15 2 21 11 15 21 -13 22 -164 22
-221 1z"/>
<path d="M1246 3990 c-55 -38 -134 -148 -119 -164 16 -16 177 152 169 176 -3
10 -26 5 -50 -12z"/>
<path d="M1044 3656 c-28 -28 -32 -116 -6 -116 16 0 49 120 36 133 -4 3 -17
-4 -30 -17z"/>
<path d="M4394 4498 c-29 -32 -32 -52 -17 -107 16 -56 13 -71 -14 -82 -23 -10
-26 -16 -8 -23 14 -5 20 -18 14 -28 -6 -10 -3 -18 8 -18 10 0 25 24 32 54 8
29 29 66 47 80 31 25 31 27 -4 22 -21 -4 -41 4 -46 17 -10 29 51 91 76 76 10
-6 18 3 18 20 0 43 -62 36 -106 -11z"/>
<path d="M4220 4247 c1 -41 34 -65 76 -54 49 13 60 47 16 47 -16 0 -43 5 -60
12 -18 7 -32 5 -32 -5z"/>
<path d="M4891 3986 c-18 -47 45 -95 82 -63 36 30 34 70 -5 85 -49 19 -63 15
-77 -22z"/>
<path d="M4855 3846 c36 -5 90 -5 120 0 30 4 1 8 -65 8 -66 0 -91 -4 -55 -8z"/>
<path d="M3799 3334 c-71 -48 -201 -136 -289 -195 -330 -225 -718 -371 -878
-331 -119 30 24 174 332 332 160 83 140 123 -33 68 -79 -25 -251 -69 -382 -98
-521 -115 -898 -246 -1010 -351 -78 -73 -119 -59 -119 42 0 80 6 87 298 335
107 91 43 161 -178 196 -82 13 -84 12 -62 -29 13 -24 34 -43 48 -43 13 0 36
-18 49 -40 17 -26 18 -40 4 -40 -12 0 -16 -9 -9 -20 7 -11 -8 -20 -34 -20 -36
-1 -40 -5 -17 -19 25 -16 23 -21 -10 -33 -21 -8 -54 -27 -71 -42 -18 -15 -44
-25 -58 -22 -14 3 -30 -7 -35 -22 -6 -17 -1 -22 12 -14 13 8 23 5 23 -7 0 -11
-9 -21 -20 -21 -11 0 -19 -7 -17 -15 2 -8 -6 -38 -18 -66 -40 -96 -38 -188 3
-173 16 6 36 -9 49 -37 15 -34 32 -44 56 -35 22 9 29 5 19 -10 -9 -16 -3 -19
17 -12 17 7 31 21 31 31 0 11 17 14 37 8 21 -7 48 1 62 17 13 16 49 35 80 42
31 7 85 33 120 59 34 26 80 42 100 37 20 -5 55 6 77 25 52 45 160 82 249 85
39 1 107 15 152 31 88 30 103 26 103 -30 0 -85 69 -177 150 -199 134 -38 145
-43 105 -53 -19 -4 -35 -16 -35 -26 0 -11 -10 -19 -21 -19 -12 0 -15 10 -8 22
10 15 3 16 -24 3 -20 -11 -48 -16 -62 -11 -13 5 -46 -16 -73 -47 -41 -47 -56
-53 -86 -35 -37 23 -99 -12 -71 -40 6 -7 -7 -12 -30 -12 -22 0 -46 -13 -52
-30 -13 -33 -73 -42 -73 -10 0 11 -9 20 -20 20 -11 0 -20 -23 -20 -51 0 -47
-65 -161 -109 -193 -11 -8 -15 -19 -9 -25 11 -11 70 18 268 131 202 116 370
180 509 192 194 17 249 67 122 109 -79 26 -35 91 56 81 76 -8 88 -5 77 22 -8
23 -3 29 18 20 36 -14 211 72 196 97 -6 9 -3 17 6 17 15 0 57 32 183 140 25
22 54 40 62 40 9 0 52 34 95 75 43 41 114 102 156 135 216 166 221 205 9 64z"/>
<path d="M5372 3308 c-7 -17 -3 -46 8 -65 19 -29 20 -28 15 7 -4 30 5 38 33
33 35 -6 35 -3 6 25 -39 40 -47 40 -62 0z"/>
<path d="M4695 3098 l-73 -82 -81 65 c-103 83 -246 100 -427 51 -140 -38 -254
-109 -184 -114 113 -8 370 -7 370 2 0 36 153 13 205 -31 82 -69 225 -93 187
-32 -5 9 21 32 59 52 57 31 67 47 65 104 -3 88 -32 85 -121 -15z"/>
<path d="M328 5204 c-27 -19 -22 -349 6 -359 30 -10 45 64 46 219 0 132 -13
166 -52 140z"/>
<path d="M94 5063 c-19 -176 5 -540 33 -490 11 20 32 49 47 64 14 14 20 36 13
48 -35 56 -29 194 7 182 29 -11 31 -8 11 14 -14 15 -25 53 -25 84 0 32 -8 52
-18 46 -27 -17 -39 33 -19 74 11 22 11 35 -1 35 -10 0 -22 16 -26 35 -5 19
-14 -22 -22 -92z"/>
<path d="M341 3346 c1 -83 7 -105 19 -76 24 56 24 165 0 180 -13 8 -19 -31
-19 -104z"/>
<path d="M5471 2275 c-4 -14 -13 -125 -19 -246 -9 -193 -26 -290 -83 -481 -11
-39 -2 -43 116 -54 71 -7 140 -15 154 -18 14 -3 28 8 31 24 85 454 100 814 31
751 -27 -25 -39 -60 -38 -118 2 -116 -1 -133 -18 -131 -61 10 -72 -6 -28 -43
26 -21 38 -39 27 -39 -38 0 -45 -65 -9 -93 33 -26 33 -28 -5 -56 -79 -58 -90
-73 -90 -122 0 -27 -9 -49 -20 -49 -23 0 -23 107 0 180 14 43 17 44 20 10 2
-32 7 -29 24 16 23 64 10 90 -29 58 -27 -23 -36 46 -11 87 20 33 24 117 8 166
-11 33 -8 53 11 65 20 13 20 17 2 18 -14 0 -25 23 -25 50 0 51 -35 69 -49 25z"/>
<path d="M2100 1507 c-426 -82 -598 -392 -460 -830 65 -205 305 -417 347 -307
8 21 -1 28 -33 25 -32 -4 -42 4 -38 30 3 19 -4 35 -15 35 -12 0 -21 9 -21 20
0 30 54 24 66 -8 30 -76 282 -125 332 -64 20 23 7 30 -75 42 -318 43 -428 700
-142 853 138 74 334 37 415 -78 121 -173 120 -601 -3 -702 -18 -15 -28 -35
-22 -45 6 -10 -3 -12 -20 -6 -23 9 -28 4 -20 -19 20 -50 192 49 175 100 -4 12
4 35 18 50 47 52 75 115 64 145 -6 17 5 38 28 50 68 37 69 -132 1 -207 -9 -10
-17 -35 -17 -55 0 -21 -22 -45 -52 -57 -36 -13 -48 -29 -40 -52 9 -22 4 -28
-18 -20 -17 7 -28 1 -25 -13 3 -13 -10 -22 -27 -19 -18 3 -44 -8 -58 -25 -36
-43 0 -38 127 18 419 185 365 946 -78 1100 -102 35 -321 56 -409 39z m-370
-487 c-7 -11 2 -20 19 -20 45 0 38 -33 -9 -46 -32 -8 -40 0 -40 38 0 26 10 48
21 48 12 0 16 -9 9 -20z m61 -195 c-2 -83 6 -122 28 -139 27 -20 26 -28 -13
-65 -57 -53 -56 -54 -57 39 -1 44 6 80 15 80 33 0 14 36 -24 46 -46 12 -55 74
-10 74 17 0 30 18 30 40 0 22 8 40 17 40 10 0 16 -52 14 -115z m949 63 c0 -61
-39 -56 -62 8 -14 36 -9 44 23 44 29 0 39 -14 39 -52z m-868 -360 c-7 -17 -12
-40 -12 -51 0 -32 -34 0 -46 43 -8 30 -1 40 30 40 29 0 37 -9 28 -32z"/>
<path d="M3155 1508 c-8 -8 -2 -29 15 -47 24 -28 26 -68 11 -242 -10 -115 -24
-346 -32 -514 -16 -328 -7 -355 74 -246 24 33 51 55 60 49 9 -6 17 0 17 13 0
13 -13 18 -29 12 -17 -6 -35 -3 -42 8 -6 10 3 19 20 19 17 0 31 14 31 30 0 17
14 30 30 30 21 0 30 -21 30 -70 0 -38 -10 -70 -22 -70 -14 0 -10 -19 10 -49
17 -27 32 -64 32 -81 0 -38 48 -59 93 -42 29 12 29 16 2 47 -32 36 -5 762 29
796 14 13 359 -252 414 -318 18 -22 27 -94 27 -228 0 -107 4 -172 10 -145 9
47 11 47 26 10 12 -29 17 -13 18 56 1 79 8 98 46 113 34 14 36 19 10 20 -28 1
-31 10 -15 52 29 74 24 129 -9 129 -18 0 -25 12 -18 30 7 19 -7 36 -41 49 -29
11 -52 25 -52 32 0 6 11 5 25 -4 20 -12 20 -8 0 16 -13 17 -18 37 -10 45 7 8
2 22 -13 30 -17 12 -3 21 45 30 40 8 80 28 90 46 31 56 83 17 65 -48 -9 -31
-9 -77 0 -101 10 -27 9 -45 -3 -45 -11 0 -19 -70 -19 -160 0 -115 7 -160 25
-160 17 -1 15 -7 -5 -20 -22 -14 -23 -19 -4 -20 16 0 20 -10 11 -25 -30 -48
-27 -95 5 -95 25 0 31 -16 24 -70 -7 -65 -4 -70 48 -70 31 0 56 9 56 20 0 11
-10 20 -23 20 -16 0 -19 52 -10 185 7 102 22 343 34 535 17 282 27 355 54 375
52 40 14 53 -186 61 -162 6 -189 2 -189 -25 0 -17 9 -31 20 -31 34 0 25 -259
-10 -273 -19 -7 -105 52 -234 161 -199 167 -208 172 -308 172 -57 0 -129 5
-161 12 -31 6 -64 4 -72 -4z m288 -243 c16 -16 10 -29 -21 -48 -23 -15 -42
-38 -42 -52 0 -14 -12 -25 -26 -25 -27 0 -31 68 -6 123 16 36 60 37 95 2z"/>
<path d="M1140 1462 c-135 -15 -166 -36 -329 -227 -71 -83 -136 -156 -145
-161 -39 -21 -118 -31 -142 -17 -38 24 -75 261 -47 306 38 60 30 63 -168 52
-210 -11 -230 -18 -183 -71 20 -22 48 -132 73 -285 71 -433 105 -583 127 -561
21 21 26 333 8 507 -6 52 -2 100 8 106 10 6 18 -3 18 -20 0 -18 13 -37 30 -44
50 -19 97 -132 64 -157 -15 -11 -24 -30 -20 -43 5 -13 0 -29 -11 -35 -11 -7
-12 -41 -3 -81 8 -38 10 -74 4 -80 -6 -6 0 -11 13 -11 12 0 23 -18 23 -40 0
-22 9 -40 20 -40 11 0 20 -10 20 -21 0 -12 -9 -16 -20 -9 -32 20 -23 -23 11
-51 17 -14 26 -37 21 -52 -12 -29 79 -139 93 -113 5 9 -8 129 -28 266 -42 283
-40 300 38 300 82 0 127 -39 294 -257 83 -108 164 -196 181 -196 37 0 39 25 5
47 -54 34 -98 186 -54 186 12 0 16 -8 10 -19 -6 -10 7 -24 30 -31 30 -10 38
-24 29 -57 -8 -28 -6 -34 5 -18 18 26 219 -147 209 -180 -2 -8 10 -15 27 -15
16 0 35 -13 42 -30 7 -19 37 -30 79 -30 83 0 87 23 10 61 -32 16 -125 119
-207 229 -170 227 -257 319 -341 363 l-59 31 99 103 c54 57 133 144 176 193
43 50 107 111 144 136 118 81 91 93 -154 66z"/>
<path d="M5181 1435 c-571 -57 -877 -626 -537 -997 67 -74 156 -119 156 -79 0
11 -18 21 -40 21 -38 0 -49 19 -42 75 2 14 -9 19 -26 13 -22 -8 -26 0 -17 34
7 26 3 39 -8 32 -11 -7 -20 14 -20 47 0 75 26 75 69 -1 19 -33 45 -60 59 -60
14 0 25 -18 25 -40 0 -22 10 -40 21 -40 12 0 53 -24 92 -54 72 -54 98 -58 313
-46 71 4 106 13 90 23 -18 12 -13 16 18 17 55 0 67 45 70 260 1 28 6 37 11 22
8 -21 19 -17 44 17 29 38 37 40 58 15 19 -24 18 -36 -8 -62 -17 -18 -23 -32
-12 -32 11 0 21 -56 23 -125 5 -197 5 -195 54 -195 49 0 59 19 26 52 -28 28
50 424 93 471 45 50 44 51 -178 62 -194 9 -216 4 -172 -40 21 -21 3 -213 -37
-381 -35 -146 -363 -43 -460 145 -42 81 -26 314 29 421 122 238 381 335 591
222 53 -29 104 -52 113 -52 18 0 141 158 141 182 0 53 -315 96 -539 73z m-458
-511 c-13 -4 -23 -24 -23 -44 0 -48 -37 -71 -66 -42 -16 16 -16 22 2 22 13 0
24 18 24 40 0 22 13 40 30 40 17 0 31 11 32 25 1 16 5 15 13 -4 6 -16 1 -32
-12 -37z"/>
<path d="M1379 1351 c-40 -26 -86 -69 -103 -95 -18 -27 -80 -101 -138 -164
l-106 -117 49 -39 c126 -101 158 -135 249 -266 136 -195 243 -322 313 -372 78
-56 95 -35 28 36 -29 31 -113 142 -186 246 -73 105 -181 238 -240 297 l-106
107 111 136 c119 146 151 176 215 209 22 12 40 30 39 41 -3 36 -53 29 -125
-19z"/>
<path d="M4394 1364 c-35 -39 -75 -526 -72 -872 3 -358 54 -146 88 362 22 342
35 438 61 467 30 33 30 37 -7 57 -30 16 -46 13 -70 -14z"/>
<path d="M2800 1370 c0 -7 26 -46 59 -86 166 -210 147 -718 -32 -866 -15 -13
-27 -33 -27 -45 0 -37 162 133 204 215 87 170 69 467 -39 627 -52 77 -165 183
-165 155z"/>
<path d="M604 1316 c-29 -29 -31 -95 -4 -166 26 -68 60 -46 60 37 0 36 10 75
22 87 26 26 8 66 -29 66 -14 0 -36 -11 -49 -24z"/>
<path d="M5732 1208 c-74 -118 -91 -122 -203 -56 -176 103 -400 63 -504 -91
-121 -180 -114 -512 14 -581 38 -20 38 -17 -3 73 -164 373 176 757 486 547 48
-32 103 -59 121 -60 42 0 197 177 197 225 0 62 -48 36 -108 -57z"/>
<path d="M2145 1256 c-150 -73 -172 -545 -31 -700 55 -61 66 -40 26 49 -123
281 -53 604 138 629 45 6 76 19 70 29 -14 24 -148 19 -203 -7z"/>
<path d="M2266 1180 c-96 -40 -134 -374 -61 -540 116 -263 289 -101 271 254
-13 265 -70 344 -210 286z"/>
<path d="M5216 1075 c-141 -116 -179 -390 -79 -560 62 -107 103 -99 103 20 0
37 10 108 23 157 19 76 17 95 -10 125 -49 53 -1 111 89 107 78 -3 98 8 133 70
56 102 -154 168 -259 81z"/>
<path d="M3572 855 c-28 -414 -29 -537 -6 -530 44 15 105 590 70 660 -35 69
-53 32 -64 -130z"/>
<path d="M3706 605 c-18 -239 -16 -282 11 -330 26 -46 28 -63 7 -95 -20 -33
-19 -40 6 -40 20 0 30 -20 30 -58 0 -76 127 -97 244 -39 87 43 144 49 91 9
-44 -33 201 -56 399 -38 155 15 288 107 216 152 -110 67 -194 172 -182 228 8
39 -1 71 -28 106 l-39 50 -3 -80 c-4 -127 4 -198 24 -219 143 -149 -420 -195
-585 -49 -35 32 -76 58 -91 58 -46 0 -52 56 -12 107 62 79 65 400 4 465 -68
73 -70 68 -92 -227z"/>
<path d="M660 764 c0 -75 81 -473 100 -492 45 -45 2 446 -45 503 -29 36 -55
31 -55 -11z"/>
<path d="M5792 730 c-36 -27 -104 -343 -86 -398 12 -36 57 66 87 196 16 66 43
136 60 155 54 60 6 98 -61 47z"/>
<path d="M849 485 c24 -163 32 -179 124 -245 49 -35 130 -99 180 -142 112 -97
316 -120 303 -33 -4 33 -23 47 -76 56 -82 14 -160 52 -160 80 0 10 -22 19 -48
19 -54 0 -139 88 -245 254 -84 130 -95 132 -78 11z"/>
<path d="M3024 488 c-119 -282 -657 -455 -1023 -329 -95 33 -114 34 -149 9
-23 -15 -61 -28 -86 -28 -69 0 -55 -31 35 -78 123 -65 1791 -76 1808 -12 23
87 18 90 -160 90 -176 0 -300 34 -321 87 -6 16 -37 34 -69 40 -66 13 -77 60
-28 115 19 21 29 61 25 101 l-6 67 -26 -62z"/>
<path d="M1500 70 c0 -61 6 -70 50 -70 44 0 50 9 50 70 0 61 -6 70 -50 70 -44
0 -50 -9 -50 -70z"/>
<path d="M1620 72 c0 -41 11 -49 79 -55 l78 -8 -63 55 c-79 67 -94 69 -94 8z"/>
<path d="M3640 60 c0 -47 9 -60 40 -60 31 0 40 13 40 60 0 47 -9 60 -40 60
-31 0 -40 -13 -40 -60z"/>
</g>
</svg>
