 <svg  version="1.0" xmlns="http://www.w3.org/2000/svg"  width="300.000000pt" height="350.000000pt" viewBox="0 0 300.000000 350.000000"  preserveAspectRatio="xMidYMid meet">  <g transform="translate(0.000000,350.000000) scale(0.100000,-0.100000)" fill="#ffffff" stroke="none"> <path d="M1530 3489 c-19 -5 -71 -11 -115 -15 -121 -10 -163 -30 -267 -126 -16 -15 -39 -30 -51 -34 -22 -7 -64 -53 -59 -66 1 -5 -4 -8 -12 -8 -8 0 -18 -9 -21 -20 -4 -11 -17 -32 -29 -48 -13 -15 -27 -38 -31 -52 -4 -14 -16 -37 -27 -52 -11 -16 -17 -31 -15 -35 3 -5 -5 -8 -16 -9 -12 -1 -83 -9 -157 -19 -74 -10 -146 -19 -160 -21 -66 -8 -184 -42 -188 -54 -6 -17 -30 -11 -107 26 -65 32 -84 36 -147 36 -116 1 -128 -1 -128 -16 0 -12 17 -14 88 -11 59 1 96 -2 114 -11 15 -8 31 -13 35 -12 4 2 19 -5 33 -15 21 -15 23 -19 10 -27 -8 -5 -19 -10 -25 -11 -5 -1 -19 -3 -30 -4 -43 -6 -190 -84 -160 -85 6 0 15 4 20 9 13 12 214 73 345 105 103 25 191 42 340 67 41 7 79 16 85 21 5 4 17 8 27 8 15 0 18 -8 18 -44 0 -24 6 -59 14 -78 13 -30 13 -34 -2 -34 -31 -1 -116 -15 -122 -20 -2 -3 34 -4 82 -2 l86 3 -16 30 c-21 39 -22 150 -2 187 75 140 187 278 225 278 6 0 24 14 41 31 50 53 102 77 184 84 41 4 109 13 150 19 147 25 225 3 313 -86 70 -72 116 -152 122 -214 3 -27 8 -73 11 -102 5 -37 2 -69 -11 -108 -16 -51 -16 -58 0 -102 20 -58 44 -176 52 -260 5 -55 9 -66 38 -90 45 -36 95 -65 95 -55 0 5 -23 31 -51 58 -38 36 -49 53 -45 69 3 12 -2 47 -11 79 -9 32 -13 60 -11 63 3 3 48 -2 99 -11 52 -9 117 -19 144 -21 28 -3 57 -8 65 -11 8 -4 28 -8 45 -10 16 -3 37 -9 47 -14 10 -6 22 -8 27 -5 4 3 23 1 41 -4 19 -5 36 -8 38 -6 9 10 -110 37 -291 66 -243 40 -237 38 -237 52 0 38 648 -87 651 -127 2 -29 -3 -480 -5 -482 -2 -2 -29 22 -62 52 -72 68 -141 116 -169 120 -12 1 -52 18 -89 38 -37 21 -74 37 -81 37 -8 0 -19 8 -24 18 -7 11 -10 13 -11 3 0 -11 -3 -11 -15 -1 -26 22 -16 2 12 -24 15 -14 41 -31 57 -37 17 -7 42 -21 55 -31 13 -10 31 -18 40 -18 45 0 139 -61 213 -137 79 -82 98 -113 98 -161 0 -23 -3 -21 -21 18 -23 52 -157 193 -209 220 -19 10 -54 23 -78 29 -23 7 -59 23 -79 36 -20 14 -41 25 -47 25 -6 0 -27 16 -46 36 -36 39 -75 66 -159 109 l-53 28 6 42 c5 29 1 53 -11 81 -10 22 -18 67 -19 104 0 44 -8 81 -24 114 l-22 49 23 68 c23 67 23 69 5 118 -10 28 -15 59 -11 70 10 31 -49 143 -105 201 -85 88 -196 121 -300 89 -19 -5 -74 -14 -121 -19 -80 -8 -161 -35 -171 -58 -1 -5 -30 -27 -63 -49 -74 -50 -98 -76 -152 -161 -72 -113 -86 -149 -81 -206 3 -28 13 -69 23 -91 27 -57 28 -167 3 -222 -15 -32 -18 -54 -13 -83 4 -26 3 -40 -4 -40 -23 0 -121 -72 -167 -123 -35 -38 -61 -57 -91 -66 -24 -6 -51 -20 -60 -30 -10 -10 -39 -21 -66 -24 -26 -4 -65 -16 -87 -27 -51 -26 -117 -93 -136 -138 -14 -34 -70 -92 -89 -92 -6 0 -10 110 -10 310 l0 310 80 24 c108 33 167 49 185 52 8 2 58 10 110 19 83 14 310 45 332 45 4 0 8 9 8 20 0 18 -5 20 -37 15 -21 -2 -114 -14 -208 -26 -180 -22 -313 -52 -432 -95 l-73 -27 0 -266 c0 -190 -5 -301 -16 -382 -9 -63 -16 -118 -15 -124 2 -59 17 -146 28 -168 13 -25 12 -34 -12 -92 -14 -35 -25 -74 -25 -87 0 -13 -6 -30 -12 -37 -10 -11 -10 -12 -1 -7 8 4 14 -2 17 -16 21 -114 25 -167 26 -331 0 -151 5 -208 21 -285 23 -107 52 -162 85 -162 12 0 33 -9 48 -21 l27 -21 38 41 c49 52 71 60 182 63 76 2 93 -1 104 -15 18 -25 23 -22 35 22 6 25 22 48 45 65 35 27 35 28 35 102 0 66 2 75 17 72 14 -2 16 -13 14 -61 -2 -39 2 -66 13 -81 18 -28 12 -36 -25 -36 -31 0 -69 -34 -69 -60 0 -9 -6 -22 -13 -29 -10 -10 -8 -16 11 -28 30 -21 28 -40 -8 -58 -21 -11 -30 -23 -30 -40 0 -15 -14 -41 -35 -63 -39 -42 -48 -25 -10 20 14 16 25 35 25 41 -1 7 -13 -4 -28 -23 -15 -19 -39 -48 -53 -64 l-26 -29 51 -52 c28 -28 67 -77 86 -109 47 -76 110 -159 117 -152 3 3 -8 22 -24 43 -144 182 -110 428 70 516 86 42 196 54 301 34 47 -10 90 -15 98 -12 7 2 43 7 81 9 l67 5 0 -29 c0 -31 -14 -41 -23 -17 -3 9 -26 14 -69 15 -57 2 -61 1 -44 -13 11 -8 29 -12 42 -9 44 11 147 -78 170 -146 7 -20 10 -9 15 50 5 61 3 78 -9 93 -12 14 -14 22 -6 35 9 14 30 18 105 20 52 2 104 0 116 -3 13 -3 59 -37 103 -76 l80 -71 0 37 c0 20 -7 43 -15 52 -20 19 -15 35 16 50 17 9 55 11 127 7 102 -6 103 -5 93 15 -18 34 -51 52 -73 40 -27 -14 -34 -4 -19 25 13 24 11 88 -4 133 -6 19 -4 23 13 23 23 0 32 -25 32 -96 0 -47 2 -52 25 -58 17 -4 32 -22 51 -62 17 -37 39 -63 65 -81 42 -27 49 -47 23 -61 -10 -6 -18 -27 -20 -58 -4 -43 -3 -46 8 -29 66 103 218 185 344 185 l42 0 22 88 c13 53 24 132 26 202 7 148 7 152 44 174 38 22 88 16 115 -14 10 -11 24 -20 31 -20 19 0 20 -9 12 -162 -6 -130 -24 -248 -43 -278 -8 -12 40 -59 61 -60 16 0 44 -34 44 -52 0 -26 -91 -127 -120 -133 -15 -3 -38 -1 -53 4 -23 9 -28 7 -38 -10 -6 -11 -9 -23 -6 -25 2 -3 34 -7 71 -11 50 -4 71 -11 79 -25 7 -10 20 -18 30 -18 10 0 30 -12 44 -26 l26 -26 -21 -17 c-28 -21 -59 -170 -42 -202 7 -11 9 -27 6 -35 -9 -23 -82 -51 -167 -64 -76 -12 -263 -9 -306 5 -20 6 -23 4 -23 -16 l0 -24 184 -4 c161 -3 188 -1 218 14 59 32 67 35 84 35 34 0 44 26 49 134 2 58 9 114 14 125 27 49 0 131 -42 131 -8 0 -23 10 -35 23 l-21 23 49 53 c27 29 50 64 52 79 5 36 -23 76 -68 97 l-36 17 7 51 c10 85 26 161 37 174 12 15 2 217 -12 221 -5 2 -10 18 -10 35 0 39 -30 104 -51 110 -22 6 -32 108 -18 184 25 134 -11 228 -124 320 -19 16 -27 32 -27 55 0 18 -3 43 -6 56 -4 12 -2 22 4 22 6 0 14 -21 18 -47 5 -38 15 -54 47 -83 44 -39 88 -100 106 -145 l11 -30 -4 37 c-5 38 -58 118 -95 145 -11 7 -28 34 -38 60 -16 43 -18 83 -18 409 l0 361 -120 38 c-66 21 -138 43 -160 47 -82 19 -311 57 -340 58 -16 0 -46 5 -66 10 -34 9 -37 14 -43 55 -9 60 8 121 36 128 12 4 27 2 32 -2 6 -4 47 -13 91 -20 281 -42 631 -137 722 -196 l23 -15 1 -393 c2 -557 12 -1070 23 -1086 7 -11 10 -11 18 3 5 9 7 25 3 35 -3 11 -1 23 6 26 8 6 8 10 -2 15 -15 10 -14 113 2 118 14 5 11 29 -6 46 -13 13 -14 25 -6 73 10 58 8 170 -3 181 -17 16 -4 41 27 48 17 4 35 7 38 6 3 0 7 24 8 55 1 32 -1 54 -4 51 -3 -3 -6 -22 -7 -42 -2 -45 -19 -62 -46 -45 -26 17 -34 57 -17 91 11 22 10 28 -3 42 -14 14 -14 17 3 36 10 11 25 20 34 20 10 0 7 5 -9 13 -24 12 -25 17 -26 97 -1 47 -2 174 -4 282 -2 109 -2 198 1 198 26 -2 52 -17 64 -39 l14 -26 1 24 c0 16 -15 37 -45 63 -45 40 -56 63 -33 70 25 9 -58 108 -90 108 -8 0 -31 9 -51 19 -20 11 -61 26 -91 35 -174 48 -238 63 -287 70 -17 2 -36 7 -42 10 -5 3 -29 8 -53 11 -23 2 -68 9 -98 15 -30 5 -82 14 -114 19 -67 11 -75 16 -81 57 -2 16 -9 56 -14 89 -9 61 -46 143 -82 181 -10 11 -16 24 -12 27 3 4 2 7 -3 7 -5 0 -29 18 -54 40 -25 22 -51 40 -57 40 -7 0 -13 5 -13 10 0 6 -9 10 -20 10 -11 0 -20 5 -20 10 0 12 -160 12 -210 -1z m209 -93 c18 -10 53 -38 77 -62 43 -45 108 -159 98 -175 -2 -5 -32 6 -65 23 -68 36 -88 30 -42 -12 17 -16 33 -27 36 -24 3 3 19 -1 35 -10 21 -11 35 -29 45 -59 13 -39 13 -47 -4 -92 -10 -26 -16 -52 -13 -56 2 -4 0 -10 -5 -13 -10 -7 -3 -38 24 -99 17 -40 19 -157 3 -157 -14 0 -68 53 -68 67 0 7 -6 13 -14 13 -7 0 -16 14 -20 31 -3 17 -13 46 -23 66 l-16 35 -119 -7 c-65 -3 -132 -11 -150 -15 -17 -5 -58 -7 -92 -3 -34 3 -63 5 -65 4 -2 -2 -7 3 -12 10 -8 14 -49 20 -49 7 0 -4 -7 -8 -15 -8 -23 0 -50 -47 -36 -64 8 -9 9 -16 2 -20 -6 -4 -16 2 -23 14 -17 27 -23 25 -26 -10 -1 -16 2 -30 8 -30 5 0 10 -6 10 -12 0 -18 62 -58 91 -59 23 -1 23 -1 -5 -13 l-29 -13 27 -7 c27 -7 37 -36 11 -36 -7 0 -18 -8 -23 -17 -9 -15 -16 -15 -64 -4 -69 15 -101 42 -92 78 5 18 3 24 -5 19 -19 -12 -10 -106 11 -106 5 0 21 -8 35 -17 14 -10 39 -16 54 -14 47 4 50 -7 16 -61 -18 -29 -40 -70 -49 -93 -9 -22 -17 -35 -17 -29 -1 6 -10 22 -21 35 -11 13 -23 29 -27 34 -5 6 -8 28 -9 51 0 38 1 40 28 36 16 -3 28 0 28 7 0 6 -8 11 -18 11 -30 0 -52 33 -59 87 -5 44 -2 53 18 72 l23 21 33 -32 c18 -18 33 -29 33 -25 0 4 9 3 21 -3 11 -7 23 -9 26 -6 7 6 -46 51 -60 51 -5 0 -15 17 -22 37 -10 31 -10 39 3 52 9 9 13 18 10 22 -12 11 -30 -8 -49 -50 -10 -22 -27 -48 -37 -57 -11 -9 -21 -21 -23 -27 -2 -6 -11 -12 -19 -14 -8 -2 -18 -10 -23 -18 -4 -9 -5 -3 -2 13 3 16 1 27 -6 27 -8 0 -9 21 -4 69 5 53 3 76 -8 98 -34 64 -45 165 -16 148 5 -4 9 4 9 17 0 18 2 20 10 8 8 -13 10 -12 10 3 0 30 38 75 88 104 26 15 103 70 172 121 118 89 193 134 250 153 40 14 161 4 199 -15z m-344 -27 c3 -5 -1 -6 -9 -3 -10 4 -16 1 -16 -10 0 -8 -10 -21 -22 -27 -12 -6 -27 -16 -32 -21 -10 -9 -25 -18 -103 -69 -18 -12 -33 -25 -33 -30 0 -7 -75 -49 -87 -49 -13 0 5 28 45 69 96 98 236 175 257 140z m-46 -550 c22 -13 36 -17 40 -10 5 8 17 7 39 -1 25 -10 45 -9 104 5 40 9 112 19 161 22 86 6 87 6 87 -17 0 -13 4 -28 9 -33 12 -13 2 -77 -11 -73 -11 4 -68 -45 -68 -57 0 -12 45 7 63 27 9 11 17 17 17 13 0 -5 8 -1 18 9 18 15 20 15 37 -4 20 -22 24 -65 12 -113 -5 -20 -19 -33 -43 -43 -33 -14 -41 -40 -9 -27 9 3 22 0 29 -7 13 -10 13 -18 1 -58 -8 -26 -19 -48 -24 -50 -6 -2 -15 -19 -21 -38 -15 -46 -22 -37 -31 37 -5 40 -16 73 -33 98 -33 47 -32 51 1 51 43 0 111 32 117 55 9 33 7 50 -10 71 -15 18 -15 18 -9 -10 8 -40 -16 -63 -81 -76 -46 -10 -56 -9 -70 4 -8 9 -20 16 -25 16 -19 0 -8 28 14 35 22 6 21 7 -5 17 -32 11 -38 33 -7 23 44 -14 142 84 107 107 -22 14 -91 -3 -119 -28 -29 -28 -74 -31 -100 -8 -16 14 -18 14 -29 -5 -14 -27 -50 -27 -57 -1 -6 24 -19 26 -27 5 -3 -9 -18 -15 -40 -15 -28 0 -41 7 -63 35 -19 24 -33 33 -45 29 -26 -8 -22 9 5 22 31 16 28 16 66 -7z m1 -101 c0 -4 -11 -8 -23 -8 -24 0 -62 32 -51 43 8 7 74 -24 74 -35z m340 24 c0 -15 -24 -32 -47 -32 -29 0 -30 14 0 28 27 13 47 15 47 4z m-160 -33 c0 -11 -43 -19 -68 -12 -37 9 -25 20 23 20 25 0 45 -4 45 -8z m-71 -28 c26 -19 27 -19 51 0 14 10 35 19 48 19 30 0 72 -42 72 -73 0 -29 -48 -77 -78 -77 -12 0 -26 -8 -31 -19 -6 -10 -21 -18 -35 -18 -14 0 -33 8 -42 18 -9 11 -26 19 -38 19 -11 0 -31 12 -44 28 -19 21 -23 34 -18 62 10 59 62 78 115 41z m-375 -55 c3 -14 2 -36 -4 -51 -13 -34 -13 -68 0 -60 10 6 15 -20 11 -62 -1 -13 3 -23 9 -23 5 0 10 -14 10 -32 0 -25 3 -29 12 -20 21 21 30 13 24 -23 -8 -39 1 -66 15 -44 11 18 15 11 23 -33 4 -23 3 -38 -3 -38 -15 0 -71 72 -71 91 0 9 -9 19 -20 22 -14 3 -20 14 -20 31 0 16 -6 26 -15 26 -23 0 -26 115 -4 193 15 52 24 59 33 23z m826 3 c0 -11 5 -29 11 -40 12 -23 19 -118 8 -124 -3 -3 -4 -16 -1 -30 3 -20 0 -25 -17 -25 -17 0 -21 -6 -21 -35 0 -25 -4 -33 -14 -29 -8 3 -16 -4 -20 -19 -5 -21 -59 -87 -71 -87 -3 0 -1 46 4 79 1 2 8 -2 16 -9 13 -11 15 -6 15 34 0 25 5 46 10 46 6 0 10 -4 10 -10 0 -5 5 -10 11 -10 7 0 10 12 7 30 -3 19 0 30 8 30 8 0 11 15 9 46 -3 36 -1 44 11 40 17 -6 17 -2 3 48 -11 40 -5 86 11 86 6 0 10 -9 10 -21z m-544 -84 c4 -8 16 -15 29 -15 12 0 30 -9 40 -20 10 -11 24 -20 32 -20 9 0 13 -13 13 -41 0 -24 4 -38 10 -34 6 3 10 20 10 36 0 31 41 78 69 79 8 0 23 8 34 17 18 17 20 16 48 -17 16 -19 35 -43 43 -52 18 -20 42 -96 33 -104 -3 -3 -16 1 -29 10 -30 21 -95 20 -212 -3 -99 -20 -188 -55 -219 -85 -23 -23 -37 -12 -37 28 0 51 11 93 29 113 9 10 32 42 51 71 37 55 47 61 56 37z m-402 -87 c3 -13 6 -35 6 -50 0 -19 4 -26 14 -22 8 3 18 -7 26 -28 8 -18 19 -36 25 -40 16 -10 -5 -140 -21 -134 -7 3 -14 0 -16 -6 -4 -12 -46 10 -85 46 -13 11 -23 16 -23 11 0 -4 8 -14 17 -21 37 -26 0 -27 -77 -1 -85 29 -100 32 -100 19 0 -4 23 -16 50 -26 50 -18 60 -32 38 -54 -14 -14 0 -15 42 -3 13 4 51 2 84 -4 53 -10 61 -14 78 -46 10 -19 18 -46 17 -60 0 -13 0 -41 0 -61 1 -20 -3 -47 -7 -59 -9 -22 -9 -22 -28 9 -10 18 -23 32 -29 32 -5 1 3 12 20 25 34 28 28 44 -8 20 -23 -15 -26 -15 -41 0 -14 15 -17 23 -15 41 1 13 -54 54 -73 54 -26 0 -278 -252 -278 -277 0 -12 7 -19 20 -19 22 0 27 12 8 19 -8 3 30 46 90 105 56 55 102 105 102 111 0 35 45 -7 70 -63 24 -56 106 -164 131 -171 12 -4 26 -2 32 4 7 7 14 7 24 0 7 -7 13 -8 13 -5 0 4 7 0 16 -8 19 -20 53 -20 90 -1 l29 15 -4 122 c-1 68 -7 128 -12 134 -5 6 -5 14 0 20 6 5 1 33 -11 68 l-20 58 28 23 c32 26 100 29 142 6 30 -16 160 7 238 43 52 24 55 24 99 9 25 -8 55 -13 65 -10 13 3 20 0 20 -8 0 -7 5 -15 12 -17 8 -3 7 -13 -5 -36 -8 -18 -13 -32 -11 -32 10 0 60 35 68 48 7 12 10 12 17 1 6 -10 -3 -24 -29 -46 -24 -21 -31 -32 -21 -33 22 0 53 37 77 93 22 50 48 65 40 22 -3 -14 -2 -25 2 -25 4 0 11 16 14 35 4 19 13 35 20 35 7 0 18 18 25 41 9 28 17 39 27 35 10 -4 14 3 14 28 0 18 3 36 6 39 10 10 135 -62 174 -100 34 -33 35 -34 15 -49 -11 -8 -29 -14 -40 -13 -30 3 -115 -22 -115 -33 0 -7 16 -8 43 -3 23 4 60 9 81 11 22 3 43 9 47 15 9 15 64 7 64 -10 0 -9 30 -21 85 -35 100 -25 138 -51 222 -150 65 -78 78 -112 78 -207 l0 -66 50 -34 c30 -21 59 -51 74 -79 26 -48 44 -164 28 -174 -14 -8 -26 41 -23 95 2 33 -2 49 -15 59 -15 13 -16 12 -9 -20 11 -53 11 -55 -2 -52 -9 1 -13 -11 -13 -38 0 -25 4 -39 12 -38 7 2 16 -32 24 -97 17 -131 21 -145 41 -145 25 0 63 -40 63 -67 0 -13 -4 -23 -10 -23 -5 0 -10 11 -10 23 0 16 -9 28 -26 36 -23 10 -25 10 -19 -9 11 -34 -13 -22 -34 17 -17 32 -20 35 -21 15 0 -26 -12 -40 -53 -62 -16 -8 -39 -32 -53 -55 -13 -22 -24 -33 -24 -25 -1 10 -5 8 -13 -6 -13 -23 -66 -70 -110 -98 -47 -29 -107 -11 -287 85 -25 13 -48 28 -52 34 -10 14 2 27 15 17 7 -5 32 -14 57 -20 25 -6 70 -17 100 -26 30 -8 68 -13 85 -10 42 7 113 51 152 93 42 45 96 148 89 167 -3 8 0 23 6 34 11 18 14 18 30 3 10 -9 18 -22 18 -30 0 -7 4 -13 9 -13 5 0 14 -13 20 -30 15 -43 20 -37 10 12 -12 49 -11 48 -66 118 -62 80 -167 157 -239 175 -32 9 -72 22 -89 29 -109 50 -199 59 -269 26 -49 -22 -64 -13 -47 28 16 37 17 95 3 100 -6 2 -8 10 -5 18 4 12 8 12 21 2 13 -11 14 -10 10 2 -3 8 -13 16 -24 16 -37 3 -39 5 -21 15 17 10 16 12 -11 27 -17 10 -41 24 -54 34 -15 10 -55 19 -113 23 -49 4 -123 13 -163 21 -89 17 -120 18 -106 4 6 -6 37 -15 70 -21 32 -7 66 -14 74 -17 8 -3 21 -4 28 -3 6 1 20 -3 30 -8 16 -10 15 -10 -3 -11 -64 -4 -235 -42 -235 -53 0 -6 -3 -7 -7 -4 -3 4 -11 3 -17 -2 -16 -12 -69 -23 -62 -13 2 4 -4 13 -15 20 -16 10 -20 10 -25 -1 -3 -8 -37 -19 -85 -27 -44 -8 -84 -19 -90 -26 -11 -13 22 -12 86 3 17 4 36 6 43 4 6 -1 12 3 12 9 0 5 5 10 10 10 25 0 6 -27 -32 -45 -23 -11 -46 -25 -52 -30 -6 -6 -37 -25 -68 -43 -46 -26 -59 -29 -70 -19 -34 34 -65 47 -110 47 -26 0 -49 4 -52 9 -4 5 -18 6 -34 1 -15 -5 -92 -18 -172 -30 -80 -11 -160 -23 -177 -26 -21 -4 -33 -2 -33 5 0 19 -35 12 -93 -20 -65 -35 -78 -49 -45 -50 20 -1 19 -2 -6 -9 -16 -5 -42 -25 -58 -44 -16 -20 -41 -41 -55 -48 -21 -10 -29 -26 -42 -78 -11 -41 -22 -65 -31 -65 -7 0 -15 -7 -17 -15 -4 -13 -3 -13 6 0 9 12 11 9 11 -14 0 -28 1 -27 23 15 13 24 27 57 31 74 8 32 23 55 36 55 5 0 2 -26 -5 -57 -17 -72 -15 -195 3 -201 6 -2 12 -11 12 -19 0 -18 60 -113 84 -132 10 -8 34 -11 73 -7 32 3 50 3 41 0 -10 -3 -18 -10 -18 -15 0 -5 -6 -9 -13 -9 -8 0 -28 -7 -45 -15 -36 -18 -82 -13 -131 16 -48 28 -53 13 -8 -26 55 -48 105 -54 171 -22 103 52 352 169 389 184 37 15 53 39 20 29 -46 -14 -317 -85 -387 -101 -49 -12 -81 -15 -83 -9 -2 5 -22 41 -45 79 -38 63 -42 76 -41 135 0 36 8 92 18 125 15 49 28 70 77 116 72 68 81 73 193 93 199 36 346 49 415 37 102 -19 102 -25 -3 -92 -50 -33 -120 -76 -154 -96 -60 -35 -77 -53 -51 -53 17 0 225 111 305 162 244 158 389 218 593 248 l85 12 88 -42 c48 -23 87 -45 87 -49 -1 -3 -6 -32 -13 -64 -11 -55 -18 -65 -137 -188 -311 -324 -277 -296 -455 -383 -88 -43 -180 -85 -204 -92 -25 -8 -108 -19 -185 -24 -78 -6 -149 -13 -158 -16 -38 -11 -15 17 50 60 97 66 120 86 102 86 -8 0 -71 -37 -140 -81 -69 -45 -143 -88 -165 -96 -22 -7 -76 -29 -121 -48 -69 -30 -87 -34 -132 -28 -49 5 -56 10 -131 89 -44 46 -84 84 -89 84 -12 0 -22 168 -11 197 5 13 4 25 -2 28 -5 4 -9 12 -7 18 1 7 -2 32 -7 57 -11 61 -8 159 5 176 7 7 10 17 7 21 -2 4 3 22 13 38 14 26 23 30 65 33 41 3 47 1 41 -14 -5 -12 -2 -15 10 -10 8 3 24 6 35 6 12 0 19 7 19 19 0 11 6 21 13 24 7 2 8 8 3 13 -5 5 -15 -1 -23 -13 -17 -25 -53 -31 -53 -9 0 8 4 16 9 18 12 4 17 95 7 125 -8 24 8 63 26 63 5 0 8 -9 5 -20 -3 -11 -1 -20 3 -20 5 0 8 -25 7 -55 -1 -31 4 -60 11 -67 9 -9 12 -1 12 36 0 48 16 121 31 142 10 12 -6 72 -24 95 -6 8 -20 18 -29 22 -11 4 -15 12 -12 22 3 8 1 15 -4 15 -6 0 -14 -9 -17 -20 -6 -19 -35 -29 -35 -12 0 4 13 30 30 58 50 88 99 117 218 131 41 5 52 10 52 23 0 18 72 50 112 50 11 0 18 7 18 20 0 22 68 94 121 127 44 27 46 27 53 1z m730 -95 c38 -18 53 -40 36 -57 -6 -6 -17 -3 -33 12 -19 18 -35 22 -85 22 -57 0 -85 -14 -44 -22 19 -4 -199 -48 -235 -48 -16 0 -23 6 -23 19 0 21 72 46 210 73 103 21 134 21 174 1z m-585 -107 c14 -25 21 -50 18 -60 -4 -10 -1 -24 7 -31 9 -10 16 -54 21 -137 4 -68 11 -141 15 -163 5 -22 6 -43 2 -47 -4 -3 -25 -3 -47 1 l-40 6 -13 135 c-21 197 -18 340 7 340 3 0 17 -20 30 -44z m-206 -213 c14 -27 51 -84 81 -128 59 -83 64 -95 44 -95 -26 0 -186 249 -170 265 11 11 20 3 45 -42z m-473 -70 c5 -44 3 -50 -10 -43 -12 6 -21 1 -35 -21 -17 -24 -27 -29 -60 -29 -22 0 -55 -4 -72 -9 -40 -11 -47 -2 -30 36 31 75 104 125 172 120 28 -2 30 -5 35 -54z m1524 -37 c40 -14 62 -48 25 -39 -10 3 -19 9 -19 14 0 5 -6 9 -13 9 -7 0 -22 7 -33 15 -24 18 -10 19 40 1z m-1584 -141 c0 -73 -7 -81 -79 -87 -43 -3 -44 -2 -58 37 -25 73 10 111 105 114 l32 1 0 -65z m1916 -121 c108 -31 251 -105 309 -159 61 -57 67 -96 27 -178 -36 -73 -97 -138 -156 -167 l-42 -20 -90 26 c-95 27 -346 109 -379 124 -41 19 -98 40 -106 40 -24 0 -3 -18 54 -47 34 -18 87 -49 117 -69 188 -126 395 -234 446 -234 40 0 75 24 143 95 65 69 92 81 50 21 -69 -97 -131 -165 -158 -171 -31 -7 -97 6 -156 31 -64 26 -187 83 -230 106 -104 56 -172 87 -190 88 -12 0 -25 4 -30 8 -11 9 -85 32 -104 32 -23 0 -10 -16 37 -45 127 -80 158 -94 148 -70 -6 17 19 21 29 5 4 -6 11 -8 16 -5 5 4 9 1 9 -4 0 -6 6 -11 14 -11 7 0 19 -6 25 -14 9 -11 8 -17 -7 -28 -24 -16 -44 -53 -34 -63 4 -3 7 -10 7 -13 1 -4 5 -17 9 -30 4 -14 3 -28 -3 -36 -6 -7 -8 -16 -4 -19 3 -4 0 -13 -6 -21 -7 -8 -11 -19 -8 -23 3 -4 -10 -8 -28 -9 -23 0 -32 3 -28 13 7 18 -37 17 -61 -2 -11 -8 -29 -15 -40 -15 -37 0 5 -20 44 -21 33 0 34 -1 12 -11 -13 -7 -26 -24 -29 -40 l-5 -28 -34 33 c-18 17 -43 40 -55 50 -23 17 -30 18 -96 21 -17 0 -34 4 -38 7 -3 4 -22 2 -41 -4 -28 -9 -37 -8 -44 3 -7 12 -12 12 -27 -1 -10 -8 -31 -15 -48 -14 -16 1 -33 -4 -37 -9 -5 -8 -8 -7 -8 1 0 9 -18 11 -67 7 -93 -7 -132 -5 -171 7 -72 24 -244 9 -311 -26 -38 -19 -41 -19 -41 5 0 11 6 20 13 20 17 0 37 46 25 58 -5 5 -12 41 -16 80 -10 85 -16 81 138 77 58 -1 113 2 122 7 10 4 37 13 60 18 100 21 132 32 148 50 10 11 26 20 38 20 11 0 22 6 25 14 5 13 88 56 108 56 4 0 14 -12 21 -27 14 -29 112 -101 138 -101 21 -1 43 -6 58 -16 7 -4 40 -10 73 -13 41 -4 59 -10 59 -20 0 -11 4 -11 21 -3 11 7 28 9 37 5 9 -3 13 -3 10 1 -4 4 -3 15 2 24 8 15 4 19 -22 24 -17 3 -44 6 -60 6 -58 0 -182 32 -239 62 -53 28 -74 48 -51 48 10 0 136 126 184 184 70 85 157 179 196 211 42 36 203 125 226 125 8 0 54 -12 102 -26z m-2002 -601 c2 -16 8 -63 11 -107 4 -43 16 -108 27 -145 29 -98 31 -111 21 -111 -24 0 -69 148 -78 253 -3 40 -8 87 -11 105 -6 41 22 46 30 5z m2372 -100 c-4 -49 -9 -98 -11 -110 -3 -13 -7 -34 -10 -47 -3 -15 -12 -25 -23 -25 -25 1 -147 -28 -168 -39 -11 -5 -32 -16 -49 -23 -16 -7 -37 -19 -46 -26 -14 -12 -24 -7 -73 41 -31 30 -56 61 -56 68 0 7 -16 28 -35 47 -22 22 -37 48 -41 70 -3 20 -10 47 -15 60 -5 13 -7 26 -4 29 8 8 84 -19 109 -39 13 -10 35 -21 49 -24 15 -4 27 -11 27 -17 0 -5 5 -6 10 -3 6 4 16 3 23 -2 18 -14 91 -33 126 -33 44 0 85 23 118 67 15 21 36 47 46 57 9 11 17 23 17 28 0 4 3 8 6 8 4 0 3 -39 0 -87z m-2282 0 c53 -56 54 -57 118 -61 64 -4 101 7 191 54 15 9 27 12 27 8 0 -5 5 -3 12 4 7 7 19 12 27 12 8 0 23 7 33 17 10 9 20 14 23 11 3 -3 0 -38 -6 -79 -9 -61 -17 -79 -44 -107 -31 -33 -33 -33 -137 -37 -111 -3 -171 -21 -213 -62 -19 -19 -21 -19 -36 -2 -29 34 -81 299 -58 299 5 0 33 -26 63 -57z m486 -198 c0 -11 -33 -34 -41 -29 -15 9 9 44 26 38 8 -4 15 -8 15 -9z m656 -28 c1 -18 5 -43 10 -57 7 -22 6 -24 -9 -11 -9 7 -14 17 -11 22 3 5 1 9 -4 9 -15 0 -20 33 -10 59 11 30 23 19 24 -22z m-796 -268 c0 -22 -13 -25 -29 -6 -8 10 -7 17 1 25 15 15 28 6 28 -19z"/> <path d="M1565 3382 c-6 -5 -36 -16 -67 -26 -69 -20 -87 -39 -29 -30 28 5 46 2 57 -7 15 -12 16 -11 10 8 -7 23 -2 26 67 39 24 4 42 2 52 -6 8 -7 22 -10 30 -6 8 3 15 1 15 -5 0 -6 5 -7 10 -4 6 3 23 -3 39 -14 15 -11 30 -18 33 -16 2 2 12 -11 23 -30 10 -19 23 -35 29 -35 6 0 4 -5 -4 -10 -12 -7 -11 -9 6 -8 21 2 21 2 2 35 -25 41 -82 91 -124 109 -36 15 -134 19 -149 6z"/> <path d="M1682 3143 c-52 -18 -49 -30 3 -13 19 6 55 10 77 7 38 -4 40 -3 23 9 -23 17 -48 17 -103 -3z"/> <path d="M1215 3131 c-6 -5 -42 -26 -82 -46 -77 -39 -118 -74 -75 -63 15 4 22 2 22 -8 0 -8 16 1 38 22 20 19 58 47 84 62 27 15 48 30 48 35 0 10 -24 9 -35 -2z"/> <path d="M1370 2649 c-13 -24 -4 -62 9 -40 6 9 10 6 15 -13 5 -21 12 -26 36 -26 20 0 33 -7 41 -22 l12 -22 15 22 c8 12 25 22 38 22 17 0 28 8 35 27 7 20 12 24 18 14 7 -10 9 -10 13 1 8 20 -9 58 -26 58 -25 0 -76 -34 -76 -52 0 -26 -11 -48 -21 -42 -5 3 -9 17 -9 32 0 20 -9 32 -31 45 -40 22 -56 22 -69 -4z"/> <path d="M2021 2422 c-1 -8 8 -16 20 -19 17 -5 19 -11 14 -32 -11 -41 -11 -54 3 -58 6 -3 12 1 12 9 0 7 7 25 15 41 13 25 12 28 -10 43 -13 9 -28 13 -34 10 -5 -3 -12 0 -14 6 -4 10 -6 10 -6 0z"/> <path d="M852 2387 c-18 -18 -32 -38 -32 -44 0 -15 92 9 98 26 3 10 0 11 -16 2 -38 -20 -46 -11 -17 19 20 20 24 30 14 30 -8 0 -29 -15 -47 -33z"/> <path d="M1581 2211 c-17 -16 -32 -34 -32 -40 -3 -26 -4 -30 -11 -37 -5 -4 -8 -12 -8 -17 0 -18 48 34 65 69 15 32 35 46 35 24 0 -17 14 -11 28 10 11 18 10 20 -17 20 -18 0 -40 -11 -60 -29z"/> <path d="M2140 2220 c0 -11 -8 -23 -17 -26 -10 -4 -33 -13 -51 -21 -66 -29 -134 -45 -145 -34 -16 16 -24 14 -46 -10 -10 -11 -27 -19 -37 -17 -14 2 -9 12 27 45 53 52 33 57 -25 8 -22 -20 -48 -42 -56 -49 -18 -15 -97 -39 -108 -32 -4 2 -20 -2 -37 -10 -28 -12 -24 -13 50 -9 148 9 216 22 333 65 29 11 61 20 71 20 9 0 27 10 39 23 22 24 30 67 12 67 -5 0 -10 -9 -10 -20z"/> <path d="M1661 2184 c-18 -26 -27 -32 -33 -22 -8 11 -11 10 -15 -1 -3 -8 -21 -31 -40 -52 -18 -20 -29 -40 -24 -43 5 -4 12 -2 16 4 3 5 15 10 26 10 10 0 19 5 19 11 0 13 38 49 51 49 13 0 38 55 31 67 -5 8 -16 -1 -31 -23z"/> <path d="M2405 2195 c11 -8 31 -24 43 -35 13 -11 28 -20 33 -20 6 0 7 -4 4 -10 -9 -14 -43 -12 -48 3 -4 14 -52 -37 -79 -86 -48 -84 4 -181 104 -196 59 -10 80 -1 98 38 l12 26 9 -22 c4 -12 6 -31 4 -43 -2 -11 0 -20 6 -20 5 0 9 -14 9 -31 0 -22 -4 -30 -14 -26 -7 3 -23 -7 -35 -24 -24 -32 -44 -36 -87 -15 -16 7 -42 17 -59 20 l-30 6 24 -20 c13 -11 29 -20 35 -20 6 0 42 -16 79 -35 l67 -35 35 22 c19 13 35 29 35 35 0 7 9 18 20 25 12 8 20 24 20 40 0 35 -13 36 -28 3 -18 -38 -73 -95 -93 -95 -21 0 -38 22 -21 28 6 2 26 16 44 32 30 26 33 34 32 80 0 29 -5 55 -10 58 -5 4 -10 18 -11 32 -4 94 -40 200 -68 200 -6 0 -21 14 -34 31 -25 33 -77 69 -101 69 -11 -1 -10 -4 5 -15z m116 -111 c22 -11 30 -21 26 -34 -3 -11 1 -21 9 -24 16 -6 20 -81 4 -91 -5 -3 -10 -13 -10 -22 0 -56 -101 -74 -146 -26 -13 14 -29 44 -36 66 -11 35 -9 44 11 82 34 63 82 80 142 49z"/> <path d="M2453 1995 c-13 -10 -15 -17 -7 -25 16 -16 48 -9 52 11 4 23 -22 31 -45 14z"/> <path d="M2428 1923 c18 -2 45 -2 60 0 15 2 0 4 -33 4 -33 0 -45 -2 -27 -4z"/> <path d="M1217 2103 c-14 -13 -6 -19 41 -33 62 -18 171 -20 165 -2 -4 8 -23 12 -57 10 -59 -2 -116 9 -116 23 0 10 -23 12 -33 2z"/> <path d="M1440 2047 c0 -21 26 -41 35 -27 4 6 5 12 4 13 -2 2 -12 9 -21 16 -15 11 -18 11 -18 -2z"/> <path d="M1320 2012 c0 -5 16 -16 35 -25 19 -9 35 -21 35 -27 0 -22 2 -25 22 -33 28 -10 78 37 59 56 -8 8 -11 8 -11 0 0 -12 -45 -11 -58 1 -6 7 -70 36 -78 36 -2 0 -4 -4 -4 -8z"/> <path d="M595 1963 c-19 -21 -35 -41 -35 -45 0 -18 18 -5 53 37 46 54 30 60 -18 8z"/> <path d="M2250 1830 l-35 -7 30 -2 c68 -5 101 -8 110 -11 6 -1 35 -2 65 -1 41 1 51 4 38 11 -21 13 -163 20 -208 10z"/> <path d="M2700 1726 c0 -17 39 -66 40 -49 0 18 -22 63 -32 63 -4 0 -8 -6 -8 -14z"/> <path d="M1914 1677 c-265 -184 -354 -234 -460 -261 -93 -24 -164 -20 -164 9 0 13 99 105 114 105 2 0 32 16 65 36 68 40 73 61 9 38 -22 -7 -82 -23 -132 -35 -314 -71 -447 -112 -553 -175 -39 -23 -58 -54 -33 -54 6 0 10 5 10 10 0 6 4 10 9 10 6 0 30 14 54 30 25 17 52 30 60 30 9 0 18 4 21 9 3 4 20 11 38 14 18 3 47 11 63 18 17 7 34 11 39 10 4 -1 14 3 20 9 7 5 15 7 19 4 3 -3 20 1 39 9 45 19 228 58 240 51 6 -4 -10 -20 -35 -36 -56 -36 -78 -81 -53 -106 28 -28 154 -21 241 12 39 15 85 37 103 48 17 11 32 16 32 11 0 -4 4 -3 8 2 4 6 52 41 108 78 55 37 109 75 120 85 10 10 33 27 51 37 30 17 52 46 35 44 -4 0 -34 -19 -68 -42z"/> <path d="M740 1658 c14 -8 44 -19 68 -26 50 -15 56 -39 15 -65 -59 -35 -124 -103 -134 -140 -11 -40 6 -79 39 -92 14 -5 14 -4 -1 13 -9 10 -17 35 -17 55 0 42 16 61 110 134 38 29 65 57 65 68 0 24 -64 56 -123 62 -44 4 -46 4 -22 -9z"/> <path d="M1393 1287 c-2 -4 -14 -5 -24 -2 -11 4 -27 1 -36 -7 -9 -7 -19 -12 -22 -10 -8 4 -92 -28 -108 -40 -7 -6 -36 -22 -65 -36 -29 -15 -62 -35 -73 -44 -11 -10 -29 -24 -40 -32 -20 -15 -20 -15 1 -16 12 0 33 9 47 20 39 31 160 97 219 120 29 12 88 24 131 27 46 4 77 10 77 17 0 13 -99 16 -107 3z"/> <path d="M671 1063 c-25 -5 -95 -52 -88 -60 6 -5 116 46 122 58 4 5 3 8 -2 8 -4 -1 -19 -4 -32 -6z"/> <path d="M2362 1564 c-31 -36 -45 -64 -32 -64 5 0 10 5 10 11 0 5 5 7 10 4 6 -3 10 1 10 9 0 9 4 16 9 16 5 0 16 11 25 25 23 34 -1 33 -32 -1z"/> <path d="M2070 1571 c-41 -9 -130 -47 -130 -56 0 -7 59 4 75 13 13 8 19 10 86 23 64 12 122 1 154 -29 23 -21 55 -35 55 -23 0 12 -41 47 -77 65 -33 16 -101 19 -163 7z"/> <path d="M1405 1035 c21 -28 25 -42 20 -67 -5 -21 -4 -28 4 -24 19 12 13 84 -9 106 -33 33 -44 22 -15 -15z"/> <path d="M1090 980 c-4 -23 -1 -62 5 -68 13 -13 16 10 7 45 -5 21 -11 31 -12 23z"/> <path d="M1922 983 c-7 -2 -17 -14 -23 -25 -9 -17 -8 -18 9 -9 39 21 51 49 14 34z"/> <path d="M1030 930 c7 -14 7 -20 0 -20 -6 0 -6 -7 2 -20 16 -26 28 -26 28 1 0 25 -17 59 -31 59 -6 0 -6 -7 1 -20z"/> <path d="M7 2706 c-7 -47 -4 -66 9 -54 3 3 4 28 2 54 l-3 49 -8 -49z"/> <path d="M960 2747 c-3 -3 -64 -12 -137 -21 -237 -29 -497 -90 -525 -124 -10 -11 -13 -82 -13 -284 0 -147 2 -268 5 -268 16 0 30 62 22 92 -5 19 -9 128 -8 243 l1 210 112 32 c123 35 294 67 447 83 55 6 102 12 104 15 6 5 -2 27 -8 22z"/> <path d="M945 2686 c-13 -14 -20 -37 -22 -73 -3 -60 -9 -77 -25 -67 -7 4 -8 2 -4 -4 4 -7 -2 -16 -16 -21 -13 -5 -30 -16 -37 -25 -7 -9 -18 -16 -23 -16 -5 0 -28 -20 -50 -45 -22 -25 -49 -45 -60 -45 -10 0 -17 -4 -13 -9 3 -5 -12 -15 -32 -22 -21 -6 -47 -18 -58 -25 -11 -8 -29 -14 -42 -14 -42 0 -164 -72 -199 -119 -19 -24 -34 -49 -34 -55 0 -6 7 -2 15 9 45 63 124 114 216 139 30 8 77 26 104 40 28 14 55 26 60 26 6 0 28 21 50 46 21 26 64 63 95 82 68 43 70 46 70 102 0 25 7 56 16 68 22 32 14 53 -11 28z"/> <path d="M174 2609 c-9 -16 -5 -175 6 -202 6 -15 9 16 9 96 1 64 -1 117 -3 117 -3 0 -8 -5 -12 -11z"/> <path d="M3 1678 c2 -687 5 -872 14 -876 19 -6 16 -39 -3 -46 -15 -6 -16 -18 -11 -94 4 -48 11 -88 17 -90 5 -2 8 -7 6 -11 -3 -4 6 -72 20 -152 27 -158 38 -289 25 -289 -23 0 5 -40 37 -56 21 -9 50 -28 65 -40 19 -16 41 -24 68 -24 52 0 53 25 1 34 -21 3 -47 14 -58 24 -11 10 -33 22 -49 26 -38 10 -48 26 -28 48 14 16 12 39 -26 269 -30 187 -45 254 -57 263 -25 19 -13 50 24 61 24 7 31 13 26 25 -35 82 -38 122 -40 610 -2 267 -5 553 -9 635 -3 83 -7 241 -8 352 -1 112 -5 203 -9 203 -4 0 -6 -392 -5 -872z"/> <path d="M44 2496 c-3 -14 -1 -64 4 -113 l9 -88 2 113 c1 111 -3 135 -15 88z"/> <path d="M166 1673 c-3 -32 -7 -78 -10 -103 -4 -35 -3 -38 3 -15 4 17 15 53 23 80 10 32 12 58 7 73 -13 34 -17 27 -23 -35z"/> <path d="M2871 1609 c1 -19 5 -47 10 -64 5 -20 6 -9 2 30 -6 66 -14 88 -12 34z"/> <path d="M2882 1475 c-1 -22 -5 -58 -8 -80 -4 -32 -3 -36 6 -23 6 10 9 45 7 80 -2 40 -4 48 -5 23z"/> <path d="M2726 1035 c-3 -69 -13 -151 -22 -183 -30 -108 -34 -98 39 -105 35 -3 70 -7 77 -9 7 -2 14 6 16 17 2 11 10 56 19 100 17 90 21 320 5 295 -5 -8 -10 -46 -10 -84 0 -77 -20 -248 -29 -256 -3 -3 -6 -12 -6 -20 0 -17 -35 -25 -71 -16 -26 7 -26 9 -4 146 15 93 18 240 4 240 -7 0 -13 -45 -18 -125z"/> <path d="M1021 750 c-147 -31 -224 -128 -223 -280 0 -130 47 -224 140 -282 18 -11 36 -18 39 -14 4 3 2 6 -4 6 -5 0 -32 20 -59 45 -27 25 -45 45 -40 45 5 0 2 8 -6 18 -17 19 -35 83 -43 156 -6 51 18 156 35 156 6 0 10 6 10 13 0 16 42 57 58 57 7 0 12 3 12 8 0 8 56 27 113 37 26 5 37 4 37 -5 0 -7 -7 -10 -15 -6 -19 7 -82 -32 -112 -70 -30 -37 -47 -125 -39 -204 6 -70 28 -144 39 -133 4 3 7 -1 7 -11 0 -9 21 -30 47 -46 36 -23 58 -30 92 -29 l46 1 -51 12 c-72 16 -112 50 -134 116 -22 62 -26 164 -9 221 7 21 27 52 45 70 29 28 43 33 93 37 116 8 171 -57 179 -211 5 -107 -10 -168 -50 -202 -36 -30 -22 -34 16 -4 49 39 66 88 66 192 0 51 -3 97 -7 101 -5 4 -8 11 -8 14 0 16 -30 78 -45 93 -20 21 -70 47 -105 53 -15 3 -30 8 -34 12 -5 6 22 3 105 -10 72 -12 165 -107 178 -181 3 -16 8 -46 12 -66 7 -40 -10 -133 -32 -178 -15 -29 -41 -58 -79 -86 -11 -8 -15 -15 -9 -15 6 0 29 13 51 29 74 54 113 176 93 294 -25 157 -126 245 -290 252 -41 2 -95 0 -119 -5z"/> <path d="M1575 750 c-4 -6 0 -17 8 -23 13 -11 14 -36 2 -217 -23 -351 -22 -344 -9 -318 14 29 22 78 29 193 11 175 24 305 32 319 3 4 27 6 54 4 50 -5 96 -31 164 -92 55 -50 65 -57 65 -49 0 4 4 2 9 -5 10 -17 58 -6 70 17 5 9 12 40 16 69 7 52 7 52 42 52 l35 0 -7 -253 c-4 -139 -4 -263 -1 -275 7 -22 36 -31 36 -12 0 6 -5 10 -11 10 -12 0 -12 14 11 365 9 125 15 173 26 181 8 6 14 15 14 20 0 13 -197 17 -205 4 -3 -5 1 -13 9 -16 22 -9 23 -132 1 -140 -9 -4 -53 26 -117 80 -96 80 -105 86 -148 86 -25 0 -61 3 -81 6 -23 4 -39 2 -44 -6z"/> <path d="M566 731 c-68 -6 -69 -6 -115 -61 -109 -129 -154 -163 -189 -141 -19 12 -37 130 -23 153 17 27 15 28 -48 28 -114 0 -184 -18 -133 -34 15 -5 24 -42 56 -234 37 -225 54 -288 54 -198 0 25 -4 46 -8 46 -5 0 -8 17 -8 38 1 20 -4 71 -10 112 -7 41 -14 102 -17 135 -3 33 -8 68 -11 78 -4 14 1 17 34 17 41 0 57 -16 46 -44 -3 -8 -1 -17 5 -21 6 -3 11 -12 11 -20 0 -8 5 -26 12 -42 6 -15 11 -31 10 -34 0 -3 4 -6 11 -7 7 0 27 -3 45 -6 19 -3 30 -1 27 4 -4 6 3 10 13 10 11 0 41 23 68 51 76 80 114 119 117 119 1 0 17 4 35 9 l32 10 -31 -45 c-16 -24 -41 -55 -55 -69 -13 -13 -24 -29 -24 -34 0 -6 -6 -14 -13 -18 -34 -20 -42 -83 -10 -83 8 0 11 -4 8 -10 -3 -5 0 -10 9 -10 19 0 91 -73 124 -125 31 -50 148 -165 167 -165 26 0 16 17 -16 30 -17 8 -39 25 -48 40 -28 45 -132 180 -163 211 -17 16 -44 37 -60 45 l-30 16 42 41 c23 23 63 68 88 99 26 32 61 65 79 75 38 20 44 44 11 41 -13 0 -54 -4 -92 -7z"/> <path d="M2582 719 c-135 -17 -256 -100 -305 -207 -33 -72 -31 -182 5 -242 25 -44 88 -112 88 -96 0 4 -15 26 -34 49 -70 87 -71 241 -2 324 41 49 75 76 133 105 62 30 72 32 177 33 61 0 123 -3 138 -8 24 -6 26 -10 16 -26 -13 -21 -29 -21 -80 2 -43 20 -87 21 -143 6 -22 -6 -40 -10 -40 -8 -1 5 -30 -19 -64 -52 -29 -28 -66 -73 -63 -76 2 -3 -6 -29 -19 -61 -18 -46 -10 -129 17 -185 21 -42 35 -57 65 -70 50 -22 119 -37 119 -27 0 9 -14 14 -66 25 -43 8 -102 69 -110 112 -26 136 47 275 160 308 70 21 105 19 165 -12 l53 -26 34 39 c41 48 42 58 7 73 -26 10 -156 32 -178 30 -5 -1 -38 -5 -73 -10z"/> <path d="M688 672 c-21 -15 -59 -54 -85 -87 -26 -33 -55 -66 -65 -73 -21 -16 -24 -42 -4 -42 24 0 81 -61 160 -172 67 -94 118 -147 166 -173 8 -4 -1 10 -20 31 -20 21 -63 79 -95 128 -33 49 -86 116 -118 149 l-57 59 55 68 c60 73 75 88 107 105 12 5 20 15 20 20 -2 19 -27 14 -64 -13z"/> <path d="M1390 694 c0 -3 16 -24 35 -46 89 -105 90 -292 2 -416 -17 -23 -44 -52 -61 -63 -28 -18 -29 -20 -6 -13 14 3 43 21 65 39 111 90 138 292 55 417 -26 39 -90 98 -90 82z"/> <path d="M2197 683 c-26 -29 -51 -533 -26 -533 5 0 7 5 4 10 -4 6 -2 16 3 23 6 7 15 89 21 182 17 264 19 276 35 294 12 13 13 20 4 29 -16 16 -22 15 -41 -5z"/> <path d="M300 655 c-9 -11 -10 -27 -4 -58 11 -51 28 -55 32 -7 2 19 8 40 14 47 12 14 2 33 -16 33 -8 0 -19 -7 -26 -15z"/> <path d="M2866 604 c-16 -25 -34 -48 -42 -51 -7 -2 -32 7 -56 20 -55 33 -105 41 -155 28 -85 -23 -131 -88 -140 -200 -6 -75 7 -128 37 -156 29 -26 33 -14 9 31 -43 82 -7 239 65 284 57 35 156 23 195 -24 25 -30 56 -19 105 39 44 51 51 76 23 75 -7 -1 -25 -21 -41 -46z"/> <path d="M1073 628 c-13 -6 -32 -30 -43 -53 -37 -77 -20 -255 30 -300 26 -24 36 -13 16 17 -24 37 -39 134 -31 206 8 79 33 111 92 119 24 3 40 9 37 14 -7 12 -74 10 -101 -3z"/> <path d="M1133 590 c-37 -15 -48 -48 -47 -145 1 -72 6 -100 24 -138 12 -26 26 -50 30 -52 18 -11 63 21 81 57 24 48 26 174 3 241 -14 41 -20 47 -42 46 -15 0 -37 -4 -49 -9z m47 -40 c0 5 5 10 11 10 6 0 9 -8 7 -17 -3 -14 -12 -17 -43 -15 -48 5 -52 7 -35 27 12 14 15 14 36 0 13 -9 24 -11 24 -5z m16 -52 c20 -32 -6 -198 -31 -198 -14 0 -37 71 -42 130 l-6 68 29 5 c16 2 32 5 36 6 4 0 10 -5 14 -11z"/> <path d="M1717 583 c-12 -14 -17 -54 -21 -195 -3 -101 -2 -188 4 -202 6 -17 5 -26 -3 -30 -7 -2 0 -5 16 -5 29 -1 36 13 13 26 -12 7 -13 37 -4 198 6 105 14 194 19 199 9 10 194 -136 210 -165 5 -10 9 -61 9 -115 0 -103 4 -118 13 -44 3 25 8 57 12 73 18 72 -24 134 -162 238 -57 43 -82 48 -106 22z"/> <path d="M2603 536 c-65 -55 -82 -202 -32 -278 37 -57 36 -58 58 71 9 54 8 68 -4 81 -23 25 3 54 47 52 28 -1 39 5 56 28 l22 29 -26 20 c-36 28 -85 27 -121 -3z m96 -20 c9 -11 3 -16 -32 -24 -61 -16 -81 -40 -72 -91 7 -44 -1 -85 -16 -76 -27 17 4 153 43 186 25 22 61 25 77 5z"/> <path d="M1786 413 c-11 -192 -11 -256 0 -260 13 -4 19 37 33 222 8 104 4 135 -19 135 -4 0 -11 -44 -14 -97z"/> <path d="M265 445 c-19 -18 -25 -32 -22 -48 3 -12 13 -61 22 -110 8 -48 20 -97 25 -110 9 -22 9 -22 9 4 1 14 -6 72 -14 129 -9 57 -14 109 -11 117 8 20 60 16 89 -7 15 -12 61 -68 103 -126 42 -57 79 -103 80 -101 6 6 -34 79 -58 107 -12 14 -21 27 -20 30 5 9 -61 85 -97 113 -43 34 -70 34 -106 2z"/> <path d="M1857 353 c-10 -143 -8 -195 8 -223 12 -22 11 -27 -2 -42 -15 -16 -15 -18 0 -18 12 0 17 -9 17 -29 0 -26 3 -29 40 -33 26 -2 55 4 87 19 59 28 75 29 44 3 l-23 -20 61 0 c34 0 61 4 61 8 0 4 19 8 43 9 23 0 36 -1 30 -4 -29 -11 -10 -18 35 -13 32 3 59 14 82 33 34 27 34 29 15 40 -11 7 -39 31 -63 54 -37 36 -41 44 -31 60 9 15 7 25 -10 53 l-21 35 0 -72 c0 -39 5 -75 10 -78 14 -9 13 -48 -2 -63 -15 -15 -205 -17 -242 -2 -14 5 -33 17 -43 27 -10 10 -31 24 -46 30 -31 14 -34 29 -12 53 11 12 17 48 21 116 l6 99 -29 28 -30 28 -6 -98z m448 -280 c16 -15 15 -17 -7 -29 -12 -7 -31 -13 -41 -14 -17 0 -16 3 5 29 13 17 24 30 25 30 1 1 9 -6 18 -16z m-346 -28 c6 3 11 1 11 -4 0 -6 -3 -11 -7 -12 -5 0 -16 -2 -26 -4 -9 -2 -15 1 -11 6 3 5 0 9 -5 9 -6 0 -11 7 -11 17 0 15 2 15 19 -1 11 -10 25 -15 30 -11z"/> <path d="M2660 427 c0 -8 5 -17 11 -19 11 -4 -3 -129 -22 -192 -7 -23 -6 -26 5 -17 17 15 35 75 42 150 l7 61 38 0 c50 0 68 -8 63 -28 -3 -9 -10 -54 -18 -99 -15 -96 -4 -135 14 -47 27 142 34 164 47 164 7 0 13 7 13 15 0 12 -14 15 -62 15 -35 0 -80 3 -100 6 -30 5 -38 3 -38 -9z"/> <path d="M330 391 c0 -5 7 -45 15 -88 8 -43 15 -90 15 -105 0 -16 4 -28 10 -28 5 0 7 -6 4 -14 -3 -8 -1 -17 5 -21 23 -13 2 222 -22 253 -11 14 -27 16 -27 3z"/> <path d="M2894 362 c-14 -14 -23 -44 -33 -111 -7 -51 -11 -95 -8 -98 8 -8 35 58 47 117 6 30 18 62 26 71 15 17 12 39 -5 39 -4 0 -16 -8 -27 -18z"/> <path d="M420 283 c0 -3 5 -34 11 -67 9 -53 15 -65 44 -85 19 -13 59 -45 90 -72 53 -46 60 -49 111 -49 47 0 54 2 54 20 0 13 -9 21 -27 25 -43 9 -93 33 -93 45 0 5 -11 10 -24 10 -27 0 -91 66 -133 138 -24 40 -33 50 -33 35z"/> <path d="M1510 240 c-7 -16 -34 -50 -61 -75 -85 -79 -188 -110 -338 -102 -54 3 -112 12 -133 21 -32 14 -37 14 -48 1 -7 -8 -25 -15 -41 -15 -16 0 -29 -3 -29 -8 0 -16 87 -52 125 -51 22 0 33 3 25 6 -25 10 -71 45 -66 50 3 3 30 -9 60 -26 54 -30 60 -31 176 -31 72 0 119 4 115 9 -3 5 30 26 72 47 42 20 83 43 91 50 16 16 36 19 27 4 -3 -6 -1 -10 5 -10 10 0 61 -34 94 -62 6 -4 2 -16 -9 -28 -10 -11 -13 -20 -7 -20 7 0 12 3 12 8 0 4 48 4 107 1 60 -3 108 -5 109 -5 1 1 4 16 7 34 l7 32 -86 0 c-85 0 -144 15 -160 42 -5 7 -22 18 -38 23 -37 13 -42 28 -18 52 20 19 38 83 23 83 -5 0 -14 -13 -21 -30z"/> <path d="M475 68 c-6 -14 -20 -24 -35 -26 -68 -7 -90 -14 -90 -27 0 -12 10 -13 48 -9 26 4 51 11 57 15 13 12 28 11 20 -1 -3 -6 4 -10 17 -10 13 0 41 -3 63 -6 l40 -7 -43 32 c-24 18 -45 38 -49 46 -7 21 -17 19 -28 -7z"/> <path d="M290 40 c0 -25 4 -30 25 -30 21 0 25 5 25 30 0 25 -4 30 -25 30 -21 0 -25 -5 -25 -30z"/> <path d="M750 35 c0 -28 4 -35 20 -35 11 0 20 6 20 13 0 6 3 22 6 35 5 19 2 22 -20 22 -23 0 -26 -4 -26 -35z"/> <path d="M2380 39 c0 -26 3 -30 23 -27 16 2 23 11 25 31 3 23 0 27 -22 27 -22 0 -26 -4 -26 -31z"/> <path d="M810 40 c0 -22 5 -25 60 -34 l35 -6 -31 19 c-18 11 -35 24 -38 30 -11 18 -26 12 -26 -9z"/> <path d="M1820 30 c0 -23 4 -30 20 -30 16 0 20 7 20 30 0 23 -4 30 -20 30 -16 0 -20 -7 -20 -30z"/> <path d="M1403 32 c-12 -2 -26 -9 -31 -15 -8 -9 10 -11 76 -8 48 3 76 6 63 9 -14 2 -20 7 -13 11 11 7 -54 9 -95 3z"/> </g> </svg> 